<?xml version="1.0" encoding="utf-8"?>
<!-- Generator: Adobe Illustrator 18.0.0, SVG Export Plug-In . SVG Version: 6.00 Build 0)  -->
<?xml-stylesheet href="/css/svg.css" type="text/css"?>
<!DOCTYPE svg PUBLIC "-//W3C//DTD SVG 1.1//EN" "http://www.w3.org/Graphics/SVG/1.1/DTD/svg11.dtd">
<svg version="1.1" xmlns="http://www.w3.org/2000/svg" xmlns:xlink="http://www.w3.org/1999/xlink" x="0px" y="0px"
	 viewBox="0 0 200 200" enable-background="new 0 0 200 200" xml:space="preserve">
	 <?xml-stylesheet href="/css/svg.css" type="text/css"?>
<g id="Layer_1">
</g>
<g id="brille" color="white">
	<text transform="matrix(1 0 0 1 199.1407 124.7672)" display="none" font-family="'JosefinSlab-SemiBold'" font-size="86.1627">Geo-Blog.com</text>
	<g>
		<path d="M23.1,93.2c1-1.3,2.2-2,3.9-1.6c0.8,0.2,1.4,0,1.6-1.1c1.3-9.1,5.9-16.1,13.7-21.2c15.4-10.1,37.4-3.7,44.4,15.1
			c1,2.6,1.4,5.5,2.1,8.5c2.7-5.4,7-8.6,13-8.6c6,0.1,10.1,3.3,12.9,9.1c0.9-9.8,4.8-17.4,12.4-23c5.6-4.1,11.9-6.1,18.8-5.9
			c12.6,0.4,26.5,9.2,29.2,26.9c2.1,0.2,5-0.5,5.1,3.2c0,3.7-2.9,2.9-5,3.2c-2.8,18.3-17.1,26.5-28.5,26.9c-5,0.2-9.8-0.6-14.3-2.7
			c-4.5-2.1-8.2-5.1-11.2-9c-3.1-3.9-4.9-8.4-5.9-13.3c-3,0.7-3.6,0.3-3.9-2.7c-0.6-4.8-4.4-8.4-9.2-8.6c-4.9-0.2-8.9,3-9.8,7.9
			c0,0.3-0.1,0.5-0.1,0.8c-0.4,3-0.9,3.3-3.9,2.6c-1,5.2-2.9,9.9-6.4,13.9c-8,9.4-18.3,13.1-30.3,10.3c-12.6-3-20.1-11.4-22.8-24
			c-0.3-1.5-0.6-2.4-2.4-2.1c-1.8,0.2-2.8-0.8-3.2-2.5C23.1,94.5,23.1,93.8,23.1,93.2z M83.7,94.7c0-13.9-11.1-25.2-24.9-25.5
			c-14.5-0.3-25.9,11.7-25.9,25.4c0.1,13.8,11.3,25.3,25.1,25.3C72.3,119.9,83.6,108.8,83.7,94.7z M170.3,94.6
			c0-14.1-11.2-25.4-25.3-25.3c-14.1,0-25.4,11.3-25.4,25.3c0,13.9,11.4,25.3,25.2,25.3C159,119.9,170.3,108.8,170.3,94.6z"/>
		<path d="M58.7,115.4c0.2,0,0.4,0,0.6,0c0.3-0.1,0.3-0.1,0.5-0.1c0.2,0,0.5,0,0.8-0.1c0,0,0-0.1,0.1-0.1c0.7-0.1,0.7-0.1,0.8-0.3
			c0,0,1.9-0.9,1.7-2c0,0,0.9-0.5,1.2-0.7c0.1-0.3,0.1-0.3,0-1.3c0.9-0.7,2-1,2.6-2c0-0.1,0-0.1,0.1-0.3c0-0.1,0-0.2,0-0.3
			c0.1-0.3,0.1-0.6,0.1-1c-0.3-0.5,0.1-1-0.1-1.5l0-0.1c0.9-2.9,4.7-3.5,5.3-6.6c0-0.1,0-0.2-0.1-0.4c-0.5,0-0.8,0.5-1.4,0.3
			c-0.1,0-0.1,0-0.3,0c-0.4,0.1-0.5,0-0.8-0.1c-0.2-0.4-0.2-0.4-0.2-0.6c0,0-0.1-0.1-0.1-0.1c0-0.1-0.1-0.3-0.1-0.4
			c-1.2-1-2.3-1.9-2-2.8c0-0.1,0-0.1,0-0.3c0-0.1,0-0.2-0.1-0.3c0,0-2-3.8-2.1-4.5c-0.2-0.2-0.5-0.2-0.7-0.4c0,0-0.1,0-0.2,0
			c-0.1,0-0.2,0.1-0.3,0.1c0,0-0.1,0-0.1,0c-1.2-0.3-2.3-0.9-3.6-0.9c0,0.9,0,0.9-0.1,1.1c0,0-0.1,0-0.2,0c-0.1,0-0.1,0-0.2,0
			c-0.3-0.1-0.4-0.4-0.7-0.4c-0.3,0-0.6,0-0.9-0.2c-0.1-0.6-1-0.6-1-0.6c-0.4,0-0.4,0-0.9-1.6c0.1-0.1,0.1-0.1,0.4-0.2
			c0,0,0-0.1,0-0.2c-0.2,0-0.3-0.1-0.5-0.2c-1.1,0.1-1.1,0.1-1.7,0.3c-0.3-0.3-0.8-0.7-1.4-0.1c-0.3,0-0.5,0-0.8,0
			c0,0.1,0,0.1-1,0.5c0,0-0.1,0-0.1,0c-0.3-0.1-0.7,0-1-0.2c-0.1,0-0.1,0-0.2,0c-0.1,0.2-0.2,0.6-0.2,0.6c-0.2,0.1-0.2,0.1-0.6,0.1
			c0,0.2-0.1,0.5-0.1,0.7c-0.2,0-0.4,0-0.6,0.1c-0.1,0.4-0.2,0.7-0.3,1.1c0,0.1,0,0.2,0,0.3c-0.2,0-0.3,0-0.5,0
			c-0.1,0.5-0.6,0.8-0.9,0.8c-0.3,0.6-0.8,1-0.9,1.7c0,0-0.1,0-0.1,0c0,0,0,0-0.1,0c-0.1,0-0.1,0-0.2,0c-0.1,1-0.1,1-0.5,1.1
			c0,0,0,0.1-0.1,0.1c0,0.1,0,0.2,0.1,0.3c0.6,0.1,0.6,0.1,0.6,0.2c-0.2,0.4-0.2,0.4-0.2,1.5c0,0.1,0,0.1,0,0.3c0,0,0,0-0.3,0.3
			c0,0.2,0.1,0.4,0.1,0.6v0.2c0,0.8,1.3,1.6,1.3,1.6c0,0.5,0,0.8,1,1.1c0,0.2,0,0.2,0,0.5c0.9,0.8,1.4,0.7,1.4,0.7
			c0-0.1,0.1-0.2,0.1-0.3c0.2,0,0.4,0.1,0.6,0c0,0,0.1,0,0.2,0c0.2,0,0.3,0,0.5,0c0.1,0.3,0.4,0.3,1.1,0.1c0.2-0.4,0.3-0.4,1-0.3
			c0,0,0.1,0,0.1,0c0.4-0.4,0.8-0.2,0.9-0.2c0.1,0.7,0.3,0.8,0.6,0.8c0.5,0,1,0,1.5,0c0,0.2,0,0.4,0,0.6c0,0-0.2,1.3-0.3,1.6
			c0,0-0.1,0-0.2,0c0,0,0,0.1-0.1,0.1c1.1,0.6,1.1,1.9,1.8,2.9c0,0,0,0.1,0,0.1c0,0.1,0,0.1,0,0.2c0,0.3,0,0.3,0.2,0.4
			c0,0.9-0.7,1.5-0.8,2.3c0,0.5,0,0.5,0.3,0.7c0,0.4,0.1,0.6,0.4,0.8c0.1,0.6,0.1,0.6,0.2,0.7c0,0.2,0,0.5,0,0.7
			c0,0,0.4,1.3,0.9,1.8c0,0.2,0,0.2,0.1,0.4c0,0,0,0,0,0.1c-0.1,0-0.2,0.1-0.2,0.2c0,0,0.1,0.1,0.1,0.1c0,0,0.1,0,0.1,0
			C58.4,115.3,58.4,115.3,58.7,115.4z"/>
		<path d="M55.8,77C55.8,77.1,55.8,77.1,55.8,77l0,0.1c0.2,0,0.2,0,0.2,0l0,0c0,0,0,0,0.1,0.1c0,0,0.1,0,0.1,0c0,0,0.1,0,0.1,0.1
			c0,0,0,0,0.1,0c0,0,0.1,0,0.1-0.1c0,0,0,0,0,0c0.1,0,0.1,0,0.1,0c0,0,0.1-0.1,0.1-0.1l0-0.1c0,0,0.1,0,0.1-0.1
			C56.6,77,56.2,77,55.8,77L55.8,77C55.8,77,55.8,77,55.8,77z"/>
		<path d="M65.9,73L65.9,73L65.9,73c0-0.1,0-0.1-0.1-0.1c0,0,0,0,0,0c0,0,0-0.1-0.1-0.1c-0.1,0-0.2,0-0.2,0l0,0.1l0.1,0
			c0.1,0.1,0.1,0.2,0.2,0.2c0,0,0.1,0,0.1,0C65.8,73.1,65.8,73.1,65.9,73C65.8,73,65.8,73,65.9,73L65.9,73L65.9,73z"/>
		<path d="M54,80c0.1,0,0.1,0,0.1-0.1c0,0,0.1,0,0.1,0c0,0,0-0.1,0-0.1c-0.1-0.1-0.1-0.2-0.1-0.2c0,0-0.1-0.1-0.1-0.1l-0.1,0
			c0,0.1,0,0.1-0.1,0.2c-0.1,0-0.1,0-0.1-0.4c-0.1,0-0.1,0-0.2,0c0.1-0.3,0.1-0.3-0.1-0.4c0,0,0,0,0-0.1l-0.1,0c0-0.1,0-0.1-0.1-0.2
			l0-0.1c0-0.1-0.1-0.3-0.1-0.3c-0.2,0-0.2,0-0.3-0.1c0.1-0.2,0.1-0.2,0.3-0.2c0,0,0,0,0-0.1c0-0.1,0.2-0.1,0.2-0.2
			c0-0.1,0-0.2,0.1-0.3c-0.2,0-0.4,0-0.6,0c0.1-0.2,0.1-0.2,0.1-0.2c0-0.1,0.2-0.1,0.2-0.2c0-0.1,0-0.1-0.1-0.1l-0.1,0
			c0,0-0.1,0-0.1,0c-0.1,0-0.2,0-0.3,0c0,0.1-0.1,0.2-0.1,0.2c0,0.1,0,0.2-0.1,0.2c-0.2,0-0.2,0-0.2,0c0,0,0-0.1-0.1-0.1l-0.1,0
			c-0.1,0-0.1,0.2-0.1,0.2c0,0.1,0.1,0.1,0.2,0.1l0,0.1c0,0,0,0,0,0.1c0,0.1,0,0.2-0.1,0.2c-0.2,0-0.2,0.1-0.2,0.1l0,0.1
			c0,0,0.1,0,0.1,0c0,0,0.1,0,0.1,0c0,0.1,0,0.1,0,0.1c0,0,0.1,0,0.1,0c0,0,0,0,0.1-0.1l0,0.1c0,0.1,0,0.2,0,0.2
			c0,0.1-0.1,0-0.2,0.1c0,0,0,0,0,0.1c0.1,0,0.2,0,0.3,0l0-0.1c0.2,0.1-0.1,0.3,0.1,0.4l0,0c0,0.1-0.1,0.1-0.1,0.2
			c0,0.1,0,0.1-0.1,0.2c-0.1,0.1-0.2-0.1-0.3-0.1l0,0c-0.1,0-0.1,0-0.1,0.1l0,0.1c0,0-0.1,0-0.1,0l0,0.1c0.1,0.1,0.2,0,0.3,0
			c0,0.1,0,0.1,0,0.1c0,0,0,0-0.1,0C52,79.9,52,79.9,52,79.9l0,0h0h0h0h0h0h0l0,0c0,0.1-0.1,0.1,0,0.2c0.1,0,0.2-0.1,0.3,0
			c0.1,0.1,0.2,0,0.3,0.1c0,0.1,0,0.1,0,0.1c0,0-0.1,0-0.3,0c-0.1,0-0.1,0.1-0.2,0.1c-0.1,0-0.1,0-0.2,0c-0.1,0.2-0.1,0.2-0.3,0.3
			c0.1,0.1,0.1,0.1,0.3,0c0.1,0,0.1,0,0.1-0.1c0,0,0,0,0.1,0.1c0.1,0,0.1,0,0.2,0c0-0.2,0-0.2,0.1-0.2c0.1,0,0.3,0,0.4,0
			c0.1,0,0.1-0.1,0.2-0.1c0.1,0,0.1,0.1,0.2,0.1l0,0c0.1,0,0.2,0,0.3,0c0.1-0.1,0.1-0.1,0.1-0.1c0.1,0,0.1,0,0.2,0l0-0.1
			c0-0.1-0.1-0.1-0.1-0.2c0,0,0,0,0,0C53.9,80.1,53.9,80,54,80z"/>
		<path d="M67.8,73.1c0,0.1,0,0.1,0,0.2l-0.1,0C67.5,73,67.5,73,67.5,73c0,0,0,0,0,0c0,0,0,0-0.1,0l0,0.1l0,0.1l-0.1,0h0l-0.1,0
			c1.1,1.2,2.1,2.6,3,4.2c-0.9-1.6-1.9-3-3.1-4.2c0,0,0,0.1,0,0.1c-0.1,0-0.1,0-0.1,0c-0.1,0-0.1,0-0.1,0c0,0-0.1,0-0.1,0
			c0,0.1,0,0.1,0.1,0.1c0,0-0.1,0-0.1,0c-0.1-0.1-0.1-0.1-0.3-0.3l0,0.1c0,0-0.1,0-0.1,0l0,0.1c-0.1,0-0.1,0-0.1,0c0,0-0.1,0-0.1,0
			c0,0,0,0.1,0,0.1c-0.1,0-0.1,0-0.1,0c-0.1,0-0.1,0-0.1,0.2c0,0-0.1,0-0.1,0l0,0.1c0.2,0.1,0.2,0.1,0.2,0.2c0,0.1,0,0.1-0.2,0.2
			c0,0,0,0,0,0c-0.4-0.3-0.4-0.3-0.4-0.4c0.1,0,0.2,0,0.2,0c0-0.1-0.1-0.1-0.1-0.2c0,0-0.1,0-0.1-0.1c-0.1-0.1-0.1-0.1-0.2-0.1
			c0,0-0.1,0-0.1,0l0,0c-0.1-0.1-0.1-0.1-0.2-0.1c0,0-0.1,0-0.1,0c0,0,0,0.1,0,0.1c0,0,0.1,0,0.1,0c0.1,0.1,0.2,0.2,0.3,0.3
			c0,0.1,0,0.1,0.1,0.2c0,0,0,0,0.2,0.1l0,0c0,0.1,0.1,0.2,0.1,0.3c-0.2,0-0.2,0-0.2-0.1l0-0.1c0,0,0,0-0.3,0c0,0,0,0.1,0,0.1
			c-0.2,0.1-0.2,0.1-0.2,0.2c0,0-0.1,0-0.1,0l0,0c0.1,0.2,0.3,0.2,0.3,0.4l0,0c-0.2,0-0.2,0-0.3,0c0,0,0,0-0.1,0
			c-0.4-0.1-0.5-0.2-0.5-0.3c0,0-0.1,0.1-0.1,0.1c0,0.1,0,0.2,0.2,0.2l0,0.1c0.1,0,0.1,0,0.1,0c0.1,0,0.2,0,0.3,0.1c0,0,0,0.1,0,0.1
			c-0.1,0-0.2,0-0.3,0l0,0.1l-0.7-0.5c-0.1,0-0.1,0-0.2,0l-0.1-0.2c-0.1-0.4-0.6-0.4-0.8-0.7c0.2,0,0.8,0.3,0.8,0.3
			c0.2,0,0.3,0,0.4,0c0.1,0,0.2,0.1,0.4,0.1c0.1,0,0.1,0,0.1,0l0,0c0.9-0.3,0-0.7,0-0.8l-0.7-0.3c0,0-0.1-0.1-0.2-0.1
			c-0.1,0-0.1-0.1-0.3-0.1c-0.1,0-0.1,0-0.1,0c-0.1,0-0.1-0.1-0.2-0.1c-0.1,0-0.1,0-0.2,0l0,0.1c-0.1,0-0.1,0-0.1,0l-0.1,0
			c0,0,0-0.1,0-0.1c0,0,0-0.1,0-0.1c-0.1,0-0.1,0-0.2-0.2c0,0-0.1,0-0.1,0l0,0.1c-0.1,0-0.2-0.1-0.4-0.1c0,0,0,0-0.1-0.1
			c0,0,0.1,0,0.1,0c0,0,0-0.1,0-0.1c0,0-0.2-0.2-0.5-0.2c0,0,0,0.1,0,0.1c0,0-0.1,0-0.1,0c0,0-0.1-0.1-0.1-0.1l0-0.1c0,0,0,0,0-0.1
			l-0.3,0c0,0,0,0.1,0.1,0.1c0,0.1,0,0.1,0,0.1l0,0c0-0.1,0-0.1-0.1-0.2c0,0-0.1,0-0.1,0l0-0.1l-0.1,0l0,0c-0.1,0-0.1,0.1-0.2,0.1
			c0,0,0,0.1-0.1,0.1h0l-0.1,0c0,0,0-0.1,0-0.1c0,0-0.1,0-0.1,0c-0.1,0-0.1,0-0.2,0.1c0,0.1,0,0.1,0.2,0.2c0,0,0,0.1,0,0.1
			c0,0-0.1,0-0.1,0c0,0,0,0-0.2,0c-0.1,0-0.1,0-0.1,0c0,0.1,0,0.1,0,0.2c0,0-0.1-0.1-0.1-0.1c-0.1,0-0.2-0.2-0.3-0.2
			c0,0,0,0.1,0,0.1c0.1,0.3,0,0.3-0.1,0.3c0,0-0.1-0.1-0.1-0.1l-0.1,0.1c0,0-0.1,0-0.1,0c0,0,0,0.1-0.1,0.1c0,0,0.1,0.1,0.1,0.1
			c0,0,0,0.1,0,0.1l-0.1,0c0,0,0,0-0.2-0.1c0,0,0-0.1,0-0.2c0,0-0.1,0-0.1,0c0,0,0,0.1,0,0.1c-0.2,0-0.2,0-0.2,0l0,0.1L58.5,73
			c-0.1,0-0.1,0-0.2,0.1l0,0l-0.1,0.1l0,0l0,0.1c0,0,0.1,0,0.1,0c0.2-0.1,0.2-0.1,0.3-0.1c0.2-0.2,0.4-0.1,0.5-0.1c0,0,0,0.1,0,0.1
			c-0.1,0-0.1,0-0.3,0.1c0,0.1-0.1,0.2-0.1,0.3c0,0-0.1,0.1-0.1,0.1c-0.1,0.2-0.3,0.3-0.3,0.3c0,0.1-0.1,0.3-0.2,0.4l0,0
			c-0.1,0-0.1,0.1-0.4,0.2l0,0.1c0,0,0.1,0,0.1,0c0.1,0,0.1,0,0.1,0c-0.1,0.3-0.4,0.3-0.6,0.5c-0.1,0-0.1,0-0.2,0
			c-0.1,0-0.1,0-0.1,0l0,0.1c0,0,0,0.1,0,0.1c0,0-0.1,0.1-0.1,0.1c-0.1,0-0.1,0-0.1,0h0h0l0,0h0h0h0h0c-0.1,0-0.2,0.1-0.4,0.2
			c0,0.2-0.3,0.2-0.4,0.3c0,0,0,0.1,0,0.1c0,0,0,0-0.1,0.3c0,0,0,0-0.1,0c0,0.1-0.1,0.1-0.1,0.2c0.1,0,0.1,0,0.2,0c0,0,0.1,0,0.1,0
			l0.1,0.1c0,0-0.1,0.1-0.1,0.1c0,0.1,0,0.1-0.1,0.2c0,0,0,0.1,0,0.1c0.1,0,0.1,0,0.2,0.1c0,0.1,0,0.1-0.1,0.2c0.4,0,0.7,0,1.1,0
			c0.1-0.1,0.1-0.1,0.3-0.2c0,0,0-0.1,0-0.1c0.1,0,0.1,0.1,0.2,0.2c0,0,0,0.1,0,0.1c0.6,0.1,1.3,0.1,1.9,0.1c0.1,0,0.1-0.1,0.2-0.1
			c0-0.1,0-0.1,0.2-0.2c0-0.1,0-0.1,0-0.1c0,0,0-0.1,0-0.1c-0.1,0-0.2,0-0.3,0c0-0.2,0-0.2,0-0.2c0,0-0.1,0-0.1-0.1
			c0-0.2,0-0.4,0-0.5c0,0,0,0,0.2-0.4c0.3-0.1,0.6-0.4,0.6-0.4c0.1-0.1,0.1-0.1,0.2-0.1l0.1-0.1c-0.1-0.2,0.1-0.4,0.1-0.7
			c0.1,0,0.1,0,0.2,0l0,0l0,0h0h0h0h0h0h0c0.1,0.1,0.1,0.1,0.2,0.1l0.1-0.1c0.1,0,0.1,0.1,0.2,0.1c0,0.1,0,0.2,0.1,0.2
			c-0.1,0-0.1,0-0.2,0c0,0.2,0,0.2-0.7,0.8c0,0.2,0,0.4,0,0.6l0,0.1c0,0,0,0.1,0,0.2c0.1,0.1,0.7,0.4,0.7,0.4c0,0,0,0,0.1,0
			c0.2-0.1,0.4,0,0.6-0.1l0-0.1c0.2,0,0.4,0,0.5,0c0,0,0.1-0.1,0.1-0.1l0,0c0,0,0.1,0.1,0.1,0.1c0.2,0,0.3,0,0.4,0l0,0.1l0,0.1
			c-0.4,0-0.4,0-0.5,0.3c-0.3,0.1-0.6-0.2-0.9,0c-0.1,0-0.1,0-0.2,0c0,0,0,0.1-0.1,0.1c2.3,0.1,4.7,0.2,6.8,0.2
			c-2.2,0-4.5-0.1-6.8-0.1c0,0,0,0-0.1,0l0,0l0,0c0,0,0,0-0.1-0.1l0-0.1l0,0c0,0-0.1,0-0.1,0c0,0,0,0,0,0c0,0,0,0,0,0l0,0.1l0,0
			c0.1,0,0.1,0,0.1,0h0h0h0h0h0h0h0c-0.1,0-0.2,0.1-0.3,0.1c0,0,0,0.1,0,0.1c0.1,0.1,0.1,0.1,0.4,0.1c0.1-0.1,0.1-0.1,0.2-0.2
			c0.2,0.1,0.2,0.2,0.4,0.3c0,0,0,0.1,0,0.1c-0.1,0-0.2,0.1-0.2,0.2c0,0.1-0.1,0.1-0.1,0.1c0,0-0.1,0-0.1,0c0,0,0-0.1-0.1-0.1
			c-0.1-0.1-0.1-0.1-0.1-0.1c0,0,0-0.1,0-0.1c0,0-0.1,0-0.1,0c0,0.1-0.1,0.1-0.2,0.2c0,0.3-0.2,0.9-0.2,0.9c0,0,0.1,0.1,0.1,0.1
			l0,0.1c-0.5-0.1-0.5-0.1-0.6,0c0,0.1,0.1,0.2,0.1,0.2l0,0.1l-0.1,0c-0.2-0.1-0.3-0.2-0.4-0.3c-1,0.5-1.3,0.6-1.3,0.1l-0.1,0
			C58,79,57.9,79,57.8,79c-0.1,0-0.1,0-0.2,0c0,0-0.1,0-0.1,0c0,0,0,0.1,0,0.1c-0.1,0.1-0.1,0.1-0.1,0.1c0,0-0.1,0-0.1,0
			c0-0.1-0.1-0.1-0.1-0.2c0,0-0.1,0-0.1,0c0,0,0-0.1,0-0.1c0,0,0-0.1,0-0.1c0.1,0,0.2,0,0.3,0c0.1,0,0.2,0.1,0.4,0.1
			c0.1-0.1,0.2-0.2,0.2-0.6c0,0-0.1,0-0.1,0c-0.3,0.1-0.3,0.1-0.3,0.2c-0.1,0-0.1,0-0.1,0h0c0,0,0-0.1,0-0.1c0,0,0.1-0.1,0.1-0.1
			c0-0.1,0-0.1,0-0.2c0,0-0.1,0-0.1,0c-0.1-0.5-0.1-0.5-0.1-0.5c-0.3,0.3-0.3,0.3-0.4,0.3c0,0-0.1,0.1-0.1,0.1c0,0.1,0,0.1,0,0.1
			c-0.1,0-0.1,0.1-0.2,0.1c-0.1,0.2,0.1,0.4,0.1,0.6c0,0,0,0.1,0,0.1l0,0.2c0,0.1,0.1,0.2,0.1,0.2c0,0.1,0,0.1,0,0.2
			c0,0-0.1,0-0.1,0c0,0-0.1,0-0.1,0c-0.2,0-0.2,0-0.2,0c-0.3-0.1-0.3-0.1-0.9,0.4c-0.1-0.1-0.1-0.1-0.2-0.1c0,0,0,0-0.1,0
			c0,0-0.1,0-0.1,0c0,0,0,0.1,0,0.1l0.1,0.1c0,0.1,0,0.2,0,0.2c-0.2,0-0.3,0-0.6,0.3c-0.1,0-0.1,0-0.1,0c0,0-0.1,0-0.1,0
			c-0.1,0.1-0.1,0.3-0.2,0.4c-0.2,0-0.2,0-0.4,0c0,0.1,0,0.1-0.1,0.2c-0.1,0-0.2,0-0.3,0c-0.1,0-0.1,0-0.1,0c0,0-0.1,0-0.1,0
			c-0.1,0-0.1-0.1-0.1-0.1c0,0-0.1-0.1-0.1-0.1c-0.1,0.1-0.1,0.2-0.1,0.2c0,0,0.1,0,0.1,0.1c0,0-0.1,0.1-0.1,0.1l0,0.1
			c0,0,0,0.1,0,0.1c-0.2,0-0.4,0-0.5,0c0,0,0-0.1-0.1-0.1c-0.4,0.1-0.4,0.1-0.5,0.2c0,0.1,0.1,0.1,0.1,0.1c0,0.1,0.1,0.1,0.2,0.2
			c0.1,0,0.2,0,0.2,0c0.2,0.2,0.2,0.2,0.3,0.3c0.1,0.2,0,0.3,0,0.5c0.1,0.1,0.2,0.2,0.3,0.3c0,0.2,0,0.2-0.4,1
			c-0.1,0-0.2,0.1-0.3,0.1c-0.1,0-0.1,0-0.1,0c-0.2-0.1-0.4-0.1-0.6-0.2c-0.3,0-0.5,0-0.7-0.1c-0.3,0-0.3,0-0.4-0.1l0,0
			c0,0-0.1,0.1-0.1,0.1c-0.2,0.1-0.3,0.1-0.4,0.1l-0.1,0.1c0.2,0.3-0.1,0.6,0,0.9c0,0.2-0.1,0.3-0.1,0.5c-0.3,0.5-0.3,0.5-0.3,0.7
			c0,0.1,0,0.2,0,0.2l0,0.1c-0.1,0.1-0.1,0.1-0.1,0.4c0.1,0,0.1,0,0.2,0c0.2,0,0.2,0,0.3,0.1c0.1,0,0.2,0,0.3,0c0,0,0,0,0.3,0.2
			c0,0.1,0.1,0.2,0.1,0.2c0,0,0.1,0,0.1,0l-0.1,0c0.7-0.2,1.3-0.8,2.1-0.8c0.1-0.1,0.1-0.2,0.1-0.3c0-0.1-0.1-0.2-0.2-0.2
			c0-0.1,0-0.1,0.3-0.5C53,85,54,84.8,54,84.7c0.1-0.1,0.1-0.2,0.1-0.2c0,0,0-0.1,0-0.1c0-0.3,0-0.6,0.5-0.5c0.1,0,0.1,0,0.1,0h0h0
			h0l0,0h0h0h0c0.2,0.1,0.2,0.1,0.4,0.2c0,0,0.1,0,0.1,0c0,0,0.1,0,0.1,0c0-0.2,0-0.2,0.2-0.3c0.1,0,0.1,0,0.2,0
			c0.1,0,0.2,0,0.4-0.2c0.5,0.1,0.4,0.6,0.8,0.8c0.1,0,0.1,0.1,0.2,0.2c1.1,0.8,1.7,1.3,1.7,1.7c-0.2,0.1-1,0.2-1.3,0.2
			c0,0,0,0.1-0.1,0.1c0.2,0.1,0.4,0.3,0.6,0.4c0.2,0,0.4,0,0.5,0c0-0.1,0-0.2,0-0.3c0.4-0.1,0.5-0.5,0.8-0.7c0-0.2,0-0.2,0-0.2
			c-0.2,0-0.2,0-0.3,0c-0.1,0-0.1-0.1-0.1-0.1c0.1-0.1,0.2-0.1,0.3-0.1c0.2,0.1,0.2,0.1,0.3,0.2c0,0,0,0,0-0.4
			c-0.2-0.2-0.6-0.3-0.7-0.6c-0.1,0-0.3,0-0.7-0.3c0.1-0.1,0.1-0.1-0.3-0.4c0,0-0.1,0-0.1,0c0-0.1,0-0.2-0.1-0.3c-0.1,0-0.2,0-0.3,0
			c0-0.1,0-0.1,0-0.2l0.1-0.1c0.1-0.1,0.1-0.1,0.1-0.1c0-0.1-0.1-0.2-0.1-0.2c0.3-0.1,0.3,0,0.4,0.2c0.6,0.1,0.7,0.8,1.3,0.9
			c0,0,0,0.1,0,0.1c0.2,0.3,0.6,0.3,0.8,0.7c-0.2,0.4-0.2,0.4,0,0.6c0,0.2,0,0.4,0.3,0.5c0.1,0.1,0.1,0.3,0.1,0.4
			c-0.1,0-0.1,0-0.2,0c0,0-0.1-0.1-0.1-0.1c0,0-0.1,0.1-0.1,0.1c0.2,0.3,0.2,0.3,0.4,0.4c0,0,0-0.1,0-0.1c0.1,0.1,0.1,0.1,0.3,0.3
			c0,0.1,0,0.2,0,0.3c0.1,0,0.2,0,0.2,0c0,0,0.1,0,0.1,0c0-0.1,0.1-0.1,0.1-0.2c0-0.1,0-0.1,0-0.1c0,0,0-0.1,0-0.1
			c0,0,0.1-0.1,0.1-0.1c0.1,0,0.2,0.1,0.2,0.1c0.1,0,0.1,0,0.1,0c0,0,0.1-0.1,0.1-0.1c0-0.1,0-0.2,0-0.2c0.1,0,0.2,0,0.3,0
			c-0.1-0.1-0.1-0.2-0.3-0.3c0,0.1,0,0.2-0.1,0.3c-0.2,0-0.2-0.1-0.4-0.5c-0.2-0.1-0.2-0.1-0.3-0.2c0-0.1,0-0.1,0-0.2l0.1,0
			c0.1,0,0.2,0.1,0.2,0.1c0.1,0,0.1,0,0.2,0c0,0,0.1,0,0.1,0c0-0.1,0-0.2,0-0.2c0.2-0.1,0.2-0.1,0.8,0.1c0,0,0,0.1,0,0.1
			c0,0,0.1,0,0.1,0l0.1,0.1c0,0-0.1,0-0.1,0c0,0.3,0.3,0.3,0.3,0.6c0,0,0,0.1,0,0.1c0,0.1,0,0.1,0,0.1c0,0.1,0.1,0.2,0.1,0.2l0,0
			l0,0l0,0l0.1,0l0,0c0,0,0,0.1,0,0.1l0,0.1l0,0l0,0.1c0,0.1,0,0.2,0,0.2l0,0l0,0l0.1-0.1l0-0.1c0-0.1,0-0.1,0-0.2
			c0-0.1,0.1-0.1,0.1-0.1l0,0l0,0l0,0l0,0c0,0,0.1,0.1,0.1,0.1l0,0.1l0,0l0,0h0c0.1,0,0.2,0,0.2,0c0.1,0,0.1,0,0.1,0l0,0l0,0l0,0
			l0,0c0-0.1,0-0.2,0-0.2l0,0l0.1,0c0.1,0,0.2,0,0.3,0l0.1,0.1l0.1,0.1l0,0l0,0l0,0l0.1,0c0.2,0,0.4,0,0.5,0c0,0,0-0.1,0-0.1
			c0,0,0-0.1,0-0.1c0,0,0-0.1,0-0.1c0,0,0.1,0,0.1,0l0,0l0.1,0c0.1,0,0.2,0.1,0.3,0.1c0.1,0,0.1,0,0.1,0l0,0l0,0l0,0l0,0l0.1,0.1
			l0,0c0,0.1,0,0.2,0,0.3c0,0.1-0.1,0.3,0,0.5l0,0c0,0,0,0.1,0.1,0.1c0,0,0,0.1,0,0.1l0,0l0,0l0,0.1l0,0c-0.1,0.2-0.1,0.2-0.2,0.3
			l0,0l0,0l0,0c1.6,0.1,3.2,0.1,4.8,0.1c-1.5,0-3.1,0-4.8-0.1c0,0-0.1,0.4-0.2,0.5l0,0l0,0l0,0c-0.1,0-0.1,0-0.2,0l-0.1,0l0,0l0,0
			l0,0c0,0-0.1,0-0.1,0c0,0-0.1-0.1-0.1-0.1c0,0,0,0-0.1,0c0,0-0.2,0-0.4-0.1l0,0l0,0l0,0c0.1,0.1,0.2,0.1,0.4,0.1c0,0,0,0.1,0,0.1
			l0,0.1c0,0,0.1,0.1,0.1,0.1c0,0,0,0.1,0,0.1l0,0l0,0.1c0,0.2,0.2,0.4,0.3,0.6c0.1,0.2,0.2,0.2,0.3,0.3c0.1,0,0.1,0,0.1,0
			c0.2,0,0.2-0.2,0.2-0.2c0,0,0,0.1,0.1,0.1c0.1,0.2,0.3,0.3,0.5,0.5l0.4,0.8c0,0.1,0,0.1,0,0.1c0,0.1,0,0.3,0,0.4
			c0.1,0.1,0.3,0.1,0.3,0.2c0,0,0.4,0.8,0.4,0.8c0.1,0.3-0.2,0.7,0.2,0.8c0,0,0.4,0.3,0.5,0.7c0.1,0.2,0.1,0.2,0.2,0.3
			c0.2,0.1,0.2,0.1,0.7,1.4c0,0.3,0,0.6,0,0.8c0.1,0.4,0.6,0.5,0.8,0.3c0.3-0.3,0.3-0.3,0.4-0.4c0.2,0,0.3,0,0.5,0h0
			c0,0,0.1,0,0.1,0.1h0.1c0-0.1,0.1-0.1,0.1-0.2c0.3-0.4,0.9-0.3,1.2-0.6c0.1-0.1,0.1-0.1,0.3-0.1l0,0c0-0.2,0-0.2,0.1-0.3
			c0.1,0,0.1,0,0.2-0.1c0.1-0.1,0.1-0.1,0.7,0c0,0,0-0.3,0.1-0.5c0.1,0,0.2,0,0.4,0c0.1-0.2,0.1-0.4,0.1-0.4c0-0.3,0-0.6,0-0.9
			c0,0.3,0,0.6,0,0.9c0,0,0,0,0.1,0c0,0,0.1,0,0.1,0c0,0,0,0,0.1,0c0-0.1,0-0.1,0-0.2c0,0,0-0.1,0-0.1v0c0-0.1,0.1-0.3,0.2-0.3l0,0
			c0,0,0,0.1,0.1,0.1c0.1-0.2,0-0.5,0.1-0.7c0,0,0,0,0.1,0c0,0,0.1,0,0.1-0.1l0,0c0-0.1,0-0.2-0.1-0.2c0,0-0.1,0-0.1-0.1l-0.1-0.1
			c0-0.1,0-0.2,0-0.3c-0.1-0.2-0.2-0.2-0.3-0.2c-0.2,0,0-0.3-0.1-0.4l-0.1-0.1c0,0-0.1,0-0.1,0c0,0.2,0,0.2,0,0.3c0,0.2,0,0.3,0,0.5
			c0-0.2,0-0.3,0-0.5l0,0c-0.1-0.1-0.1-0.2-0.1-0.3c-0.1,0-0.1,0-0.1-0.1c0-0.2,0-0.3,0-0.5c-0.1-0.1-0.1-0.1-0.1-0.1
			c-0.2,0.1-0.2,0.1-0.3,0.7c-0.1,0-0.2,0-0.3,0c-0.1,0-0.1,0-0.1,0c-0.1,0-0.1-0.1-0.2-0.1c-0.1,0-0.1,0-0.1,0
			c-0.2,0.2-0.2,0.2-0.3,0.3c0,0-0.3,0-0.3-0.4c0,0,0.1,0,0.1,0c0.1-0.1,0.1-0.1,0.2-0.1c0,0,0.1,0,0.1,0c0.4,0.2,0.4-0.1,0.4-0.1
			l0,0c-0.1,0-0.1,0-0.1,0c0,0-0.1,0-0.1,0c-0.1,0-0.1,0-0.1,0c-0.2-0.1-0.4-0.1-0.6-0.1c-0.1,0-0.1,0-0.1,0c0-0.1,0-0.3,0-0.4
			c-0.1-0.1-0.1-0.1-0.6-0.3c-0.1-0.4-0.3-0.7-0.3-1.1c0-0.3,0.4-0.1,0.4-0.1c0,0,0,0,0.3,0.3c0.2,0.2,0.2,0.2,0.3,0.5
			c0.1,0.2,0.3,0.2,0.4,0.3c0.2,0.2,0.3,0.3,0.8,0.4c0.1,0,0.1,0,0.1,0c0,0,0,0,0.1,0c0.1-0.1,0.2,0,0.2-0.1c0.1,0,0.1,0,0.1,0
			c0.1,0,0.1,0,0.3,0.1l0,0c0.1,0.1,0.1,0.4,0.3,0.4c0.1,0,0.3,0,0.4,0c0.2-0.1,0.3,0.2,0.4,0.2c0.1,0,0.2,0,0.3,0
			c0,0,0.1,0,0.1,0.1h0.5l0.4-0.1c0.1,0,0.2,0,0.3,0c0,0,0.5,0.5,0.6,0.9c0,0,0.1,0,0.1,0c0,0,0,0,0.1,0.2c0.1,0,0.1,0,0.1,0
			c0.1,0,0.1,0,0.3,0.2c-0.5,0-0.2,0.3-0.2,0.3c0.2,0.1,0.2,0.5,0.5,0.5c0.2-0.2,0.2-0.2,0.2-0.2c0,0,0-0.1,0-0.2c0,0,0.1,0,0.1,0
			c0.2,0.2,0.2,1,0.2,1c0,0.1,0,0.2,0,0.2c-0.1,1,0.5,1.9,0.4,2.9c0,0,0,0.1,0,0.1c-0.1,0.5,0.1,1.1,0.2,1.6c0,0,0,0.1,0.1,0.1
			c0,0,0,0,0.1,0c0.3-0.3,0.3-0.3,0.8-2.3c0-0.2,0-0.3,0-0.5c0-0.5,0-0.5,0.1-0.6c0.5,0,0.9-1.6,0.9-1.6c0,0,0,0,0,0
			c0-0.2,0-0.3,0-0.5C81.9,85,76.1,76.7,67.8,73.1z"/>
		<path d="M80.6,99.5L80.6,99.5l-0.1,0.2c0,0,0,0.2,0,0.2c0,0,0,0,0,0.1l0,0c0,0,0,0.1,0,0.1c-0.1,0.2-0.1,0.2-0.1,0.2
			c0,0.2-0.1,0.3-0.1,0.4c0,0.1,0.1,0.2,0.1,0.2c0,0,0,0,0.2,0c0-0.1,0-0.2,0.1-0.4c0-0.1,0-0.1,0-0.2c0,0,0-0.1,0-0.1
			c0,0,0-0.1,0-0.1c0,0,0-0.2-0.1-0.4C80.7,99.7,80.7,99.7,80.6,99.5L80.6,99.5z"/>
		<path d="M67.9,112.5c0.2-0.2,0.2-0.5,0.3-0.7c0.1-0.1,0.2-0.2,0.3-0.3c0.1-0.2,0.1-0.4,0.3-0.6c0.1-0.1,0.2-0.1,0.3-0.2
			c0.1,0,0.1,0,0.2-0.1c0.1-0.1,0-0.3,0.1-0.5c0.1-0.1,0.2-0.2,0.2-0.3c0,0,0-0.1,0.1-0.1c0,0,0-0.1,0-0.1c0,0,0,0,0-0.1
			c0.1-0.1,0.2-0.1,0.3-0.3c0,0,0,0,0-0.1l0.2-0.8c0,0,0-0.2-0.3-0.3c-0.1,0.3-0.1,0.3-0.1,0.3c-0.1,0.1-0.1,0.1-0.5,0.3
			c0,0-0.1,0.2-0.1,0.2c0,0.1,0,0.1,0,0.1c0,0-0.1,0-0.1,0c-0.1,0.1-0.1,0.2-0.2,0.3c-0.2,0.2-0.5,0-0.7,0.1c-0.1,0-0.2,0-0.2,0.1
			c-0.1,0.1,0,0.2-0.1,0.3c-0.1,0.1-0.2,0.1-0.2,0.2c0,0-0.2,0.5-0.1,0.5c0,0.1,0,0.1,0,0.1c0,0-0.1,0.2-0.1,0.2c0,0-0.1,0-0.1,0
			c0,0,0,0-0.2,0.2c-0.1,0.1-0.1,0.3-0.2,0.4c0,0-0.1,0-0.1,0.1c0,0,0,0,0,0.1c0,0.1,0,0.2,0,0.3c0,0,0,0.1,0,0.1
			c-0.1,0.2-0.1,0.2-0.1,0.4c0.1,0,0.3,0,0.4,0c0,0,0,0.1,0,0.1C67.1,112.8,67.5,112.9,67.9,112.5z"/>
		<path d="M59.2,77.2c0-0.1,0.1-0.1,0.2-0.1c-0.6,0-1.3,0-1.9-0.1c0,0.1,0.1,0.1,0.1,0.2l0,0c0,0-0.1,0-0.1,0.1c0,0,0,0.1,0.1,0.2
			l0.1,0c0,0,0.1,0.1,0.1,0.1c0,0,0,0,0,0.1l0,0.1c0,0.1,0.1,0.2,0.2,0.3c0.1,0.1,0.1,0.1,0.1,0.1c0,0.1-0.1,0.1-0.1,0.2l0,0
			c0,0,0,0.1,0,0.1c0.2,0,0.3,0,0.5,0c0-0.2,0-0.3,0.2-0.3c0,0,0,0,0.1,0l0.1,0c0.1,0,0.1,0,0.1-0.1c0,0,0.1,0,0.2,0
			c0-0.1,0-0.1,0-0.2c0.1,0,0.2,0,0.3,0c0-0.1,0-0.1,0-0.2c0,0-0.1,0-0.1,0c-0.1,0-0.1,0-0.1,0l0-0.1l-0.1,0
			c0.1-0.2,0.1-0.2,0.1-0.4C59.2,77.2,59.2,77.2,59.2,77.2z"/>
		<path d="M52.1,77.3L52.1,77.3l0.1-0.1c0,0,0.1,0,0.1,0l0-0.1c0,0,0,0,0.1-0.1l0,0c0,0,0-0.1,0.1-0.1l0,0l-0.1,0
			c0,0-0.1,0.1-0.1,0.1l-0.1,0l0,0l0,0.1c0,0-0.1,0.1-0.1,0.1c0,0,0,0.1,0,0.1l0,0C52.1,77.3,52.1,77.3,52.1,77.3z"/>
		<path d="M49.4,74.6C49.4,74.6,49.4,74.6,49.4,74.6c0.2,0,0.3,0,0.4,0c0,0,0.1,0,0.1,0c0.1,0,0.1,0,0.1,0.1c0,0,0,0.1,0.2,0.1
			c0.1,0,0.1,0,0.2,0c0.1,0,0.1,0,0.2-0.2c0,0,0.2-0.1,0.2-0.1c0.1,0,0.1,0,0.2,0c0.1-0.1,0.1-0.1,0.2-0.1c0.1,0,0.1,0,0.4,0
			c0-0.1,0.1-0.1,0.1-0.2c0,0,0-0.1,0-0.1c0,0,0,0-0.2-0.1c0.2-0.2,0.2-0.2,0.2-0.3c-0.1,0-0.1,0-0.2,0c0,0,0,0-0.1,0
			c-0.1,0-0.2,0.1-0.4,0.2c-0.1,0-0.1,0-0.1,0c-0.1,0-0.1,0-0.1,0c-0.1,0-0.3,0.1-0.4,0.1c-0.1,0-0.1,0-0.2,0c0,0,0.1-0.1,0.1-0.1
			c0,0,0.1-0.1,0.1-0.1c0,0,0-0.1,0-0.1l-0.1,0c0,0-0.1,0.1-0.1,0.1c0,0-0.4-0.2-0.7,0.2c0.1,0,0.1,0,0.2,0l0.1,0l0.1,0.1
			c0,0.1-0.1,0.1-0.1,0.1c-0.2-0.1-0.3,0-0.4,0c0,0-0.1,0.1-0.1,0.2c0,0,0.1,0,0.1,0c0.1,0,0.1,0,0.2,0l0,0c0,0.1-0.1,0.1-0.2,0.2
			L49.4,74.6z"/>
		<path d="M51.7,79.4c0-0.1,0.1-0.2,0.1-0.3c0,0,0-0.1,0-0.1c0.1,0,0.2-0.1,0.2-0.1c0,0,0-0.1,0-0.2c-0.1-0.1,0-0.1,0-0.2
			c0,0,0,0,0-0.1c0,0-0.1,0-0.1,0l0,0l0,0c-0.1,0-0.2,0-0.2,0c0,0,0,0-0.1,0.1c0,0,0,0-0.1,0l-0.1,0c0,0,0-0.1,0-0.1c0,0,0,0-0.2,0
			c0,0.1-0.1,0.2-0.1,0.3l0,0h0l0,0c0,0-0.1,0-0.1,0c-0.1,0-0.1,0-0.1,0c0,0,0,0-0.1,0c0,0-0.1,0-0.1,0c-0.1,0.2-0.1,0.3-0.1,0.5
			c0.1,0,0.1,0,0.2,0c0,0.1,0,0.1-0.1,0.2c-0.2,0-0.2,0-0.3,0.1l0,0c0,0,0,0.1,0,0.1c0,0-0.1,0-0.1,0l0,0c0,0,0,0.1,0,0.1
			c0.1,0.1,0.1,0.1,0.2,0c0.1-0.1,0.2,0,0.2,0c0.1,0,0.2-0.1,0.2-0.1c0,0,0,0,0-0.1c0,0,0.1,0,0.1-0.1c0.2,0,0.4,0,0.6,0
			c0,0,0-0.1,0-0.1c0,0,0-0.1,0-0.1c0,0,0.1,0,0.1,0C51.7,79.5,51.7,79.5,51.7,79.4z"/>
		<path d="M150.3,106.1c0.1,0,0.1,0.2,0.2,0.2c0.2,0,0.3-0.1,0.4-0.1c0.1,0,0.2,0,0.3,0c0.1,0,0,0.1,0.1,0.1c0.2,0,0.3-0.1,0.5,0
			c0.2,0.1,0.2,0.1,0.4,0.2c0-0.1,0-0.1,0.1-0.1c0.1,0,0.1,0.1,0.2,0.1c0,0,0,0,0.1,0c0.3-0.1,0.4,0.2,0.6,0.2c0,0,0.1,0,0.1,0
			l0.1,0l0,0c-0.1-0.2-0.1-0.2-0.1-0.2c-0.1,0-0.1-0.1-0.1-0.1c-0.2,0-0.4,0-0.6,0c0-0.2,0.3-0.2,0.4-0.3c-0.1,0-0.2-0.1-0.2-0.1
			l-0.4,0c-0.2,0-0.4-0.1-0.6-0.1c-0.6,0-1.4,0.1-1.9,0.1c0,0,0,0.1,0,0.1c0.1,0,0.2,0,0.2,0c0,0.1,0,0.1,0,0.2
			C150.2,106.1,150.2,106.1,150.3,106.1z"/>
		<path d="M157.7,100.5c0,0,0.1,0,0.1,0l0,0l0.1-0.1l-0.1-0.2c0-0.2,0-0.4,0-0.6c0,0,0-0.3-0.2-0.3c0,0-0.1,0-0.1,0.1
			c0,0.1,0,0.1-0.1,0.2c0,0-0.1,0.1-0.2,0.1c-0.1,0-0.1,0.1-0.2,0.1c0,0.1,0,0.1-0.2,0.1c-0.1,0,0-0.1,0-0.1c-0.1,0-0.2,0-0.2,0
			l0,0.1c-0.1,0.1-0.1,0.1-0.2,0c-0.2,0-0.2,0.2-0.2,0.2c0,0.1,0,0.3,0,0.4c0,0,0,0,0.1,0.1c0,0,0.1-0.1,0.1-0.1c0,0,0-0.1,0-0.1
			c0,0,0-0.1,0-0.1c0-0.1,0-0.1,0-0.1l0.2-0.1c0.1,0,0.1,0,0.4,0c0,0.1,0,0.1,0,0.2c0,0.2,0,0.2,0,0.3l0,0c0,0,0.1,0,0.1,0
			c0,0,0.1,0.1,0.1,0.1c0,0,0,0,0.1,0c0,0,0,0,0.1,0.1c0,0,0,0.1,0,0.1c0,0,0,0,0.1,0c0,0,0,0,0.1,0.1l0.1,0c0-0.1,0-0.1,0-0.2
			c0-0.1,0-0.1,0-0.1c0,0,0,0,0-0.3C157.6,100.6,157.6,100.5,157.7,100.5C157.7,100.5,157.7,100.5,157.7,100.5z"/>
		<path d="M148.6,105.4C148.6,105.4,148.6,105.4,148.6,105.4l0.1,0.1C148.7,105.5,148.7,105.5,148.6,105.4L148.6,105.4
			C148.7,105.4,148.7,105.3,148.6,105.4C148.7,105.3,148.7,105.4,148.6,105.4z"/>
		<path d="M155.9,106.5c0,0,0.1-0.1,0.1-0.1l0.1,0c0.2,0,0.2,0,0.3-0.1l0,0c0,0,0-0.1,0-0.1h-0.1c0,0,0,0-0.1,0c0,0,0,0-0.1,0
			c0,0,0,0-0.2,0c-0.1,0-0.1,0-0.2,0c0,0,0,0-0.1,0c-0.1,0-0.2,0.1-0.3,0.1c0,0-0.1,0-0.1,0c-0.1-0.1-0.3-0.1-0.5,0
			c0,0-0.1,0.1-0.1,0.1c0,0-0.1,0-0.1,0c0.1,0,0.1,0.1,0.1,0.1c0,0,0,0,0.4,0l0.1,0c0.3,0,0.3,0,0.3,0
			C155.8,106.6,155.8,106.6,155.9,106.5L155.9,106.5z"/>
		<path d="M155.6,107.4c0.1,0,0.1,0,0.2,0c0,0,0-0.1,0-0.1l0-0.1c-0.1,0-0.1,0-0.2,0.1C155.6,107.4,155.6,107.4,155.6,107.4z"/>
		<path d="M149.1,105.3c0.2,0.2,0.2,0.2,0.3,0.3l0.5-0.1c0,0,0.1-0.2,0.1-0.2c0,0,0-0.1,0-0.1c0-0.2,0-0.2,0.1-0.5c0,0,0-0.1,0-0.1
			c0.1-0.2,0.3-0.1,0.4-0.2l0-0.1c0,0,0-0.2-0.2-0.2c-0.2,0-0.1,0,0-0.2l0,0c0,0-0.4-0.3-0.5,0.1c-0.1,0-0.1,0-0.2,0
			c0-0.1,0.1-0.3,0-0.4c0,0-0.1,0-0.1,0c-0.2,0-0.2,0-0.2,0c0,0-0.2-0.2-0.2-0.2c0-0.1,0-0.3,0-0.4c-0.3,0-0.3,0-0.4-0.1
			c-0.1-0.1,0-0.3-0.1-0.4c0,0-0.1,0-0.1,0c0,0-0.1,0-0.1,0c-0.1,0-0.2,0-0.3-0.2l0-0.1c-0.2-0.1-0.2-0.2-0.3-0.3
			c-0.2-0.2-0.2-0.2-0.2-0.2c0,0-0.1,0-0.1,0c-0.1-0.1,0-0.1,0-0.2c0,0-0.1,0-0.3-0.3c-0.1,0-0.2,0.1-0.4,0.1
			c-0.2,0-0.2-0.2-0.4-0.2c-0.2,0.1-0.1,0.2,0.1,0.5c0.1,0.2,0.3,0.2,0.5,0.4c0.1,0.2,0.1,0.2,0.2,0.3c0,0.1,0.1,0.2,0.2,0.2
			c0.1,0,0.2,0.1,0.2,0.1c0.1,0.1,0.1,0.1,0.1,0.4c0,0,0,0.1,0,0.1c0.1,0.3,0.4,0.3,0.5,0.5c0.1,0.1,0.2,0.2,0.2,0.4
			c0,0.1,0,0.3,0.1,0.4c0.1,0.2,0.4,0.4,0.5,0.6C149,105.2,149,105.2,149.1,105.3z"/>
		<path d="M146.5,102.3L146.5,102.3C146.4,102.3,146.4,102.3,146.5,102.3C146.4,102.4,146.4,102.4,146.5,102.3l-0.1,0.1l0,0.1l0,0
			l0,0l0,0c0,0,0.1,0,0.1,0h0h0h0h0h0h0h0h0l0.1,0c0,0,0-0.1,0-0.1c0,0-0.1,0-0.1-0.1L146.5,102.3
			C146.5,102.4,146.5,102.4,146.5,102.3z"/>
		<path d="M146.8,103L146.8,103L146.8,103L146.8,103C146.8,103,146.8,103,146.8,103z"/>
		<path d="M153.5,104.9c0,0,0.1,0,0.1,0l0,0c0-0.1,0-0.1,0-0.2c0,0,0,0,0.2-0.1c0.1-0.1,0.1-0.2,0.1-0.3c0,0-0.1-0.1-0.1-0.1
			l0.2-0.3c0-0.1,0.1-0.1,0.1-0.3c0.1,0,0.1,0,0.2,0c0-0.1,0-0.3,0-0.4c0.7,0,0.5-0.2,0.4-0.3c-0.1,0-0.1,0-0.3,0c0-0.1,0-0.1,0-0.2
			c0,0,0-0.1,0-0.1c0-0.1-0.1-0.2-0.1-0.3c0-0.1,0-0.3,0-0.4c0.2,0,0.2,0,0.3,0c0-0.2,0-0.3,0.4-0.4l0,0c0-0.2,0-0.2-0.1-0.2
			c-0.1,0-0.3,0-0.3,0c-0.1,0-0.2-0.1-0.2-0.1c0-0.1,0-0.1,0-0.2l-0.1-0.2l-0.2-0.1c-0.1,0.2-0.3,0.3-0.5,0.4
			c-0.1,0.2-0.2,0.4-0.3,0.5c-0.1,0.1-0.3,0-0.4,0.1c-0.1,0.1-0.2,0.2-0.2,0.3l0,0c-0.1,0.1-0.2,0.2-0.3,0.3c-0.1,0-0.1,0-0.3,0
			c0,0.1,0,0.3,0,0.4c-0.1,0-0.3,0.1-0.4,0c-0.1,0-0.1,0-0.1-0.1l-0.1,0c0,0-0.1,0-0.1,0c0,0-0.1,0-0.1,0c0,0.2,0,0.2,0,0.2
			c0,0.1-0.1,0.1-0.1,0.1l0,0.3c0,0.3,0.4,0.3,0.3,0.6l0,0c0,0,0,0.1,0,0.1c-0.1,0.2-0.1,0.3,0,0.4c0.1,0.1,0.3,0,0.5,0.1
			c0,0.1,0.1,0.2,0.1,0.2c0.2,0.1,0.4-0.1,0.6-0.1l0,0c0,0,0,0,0.1,0.1c0.1,0.1,0.1-0.1,0.2,0c0,0,0.1,0.1,0.1,0.1c0,0,0,0,0.1,0.1
			C153.4,104.9,153.4,104.9,153.5,104.9z"/>
		<path d="M159.7,105.3L159.7,105.3L159.7,105.3c-0.1,0.1-0.1,0.1-0.1,0.1c0,0,0,0.1,0,0.1c0,0,0,0.1,0,0.1c0,0,0,0,0,0.1l0,0l0,0
			c0,0,0.1,0,0.1,0l0,0c0,0,0,0,0.1,0c0,0,0-0.1,0-0.1c0-0.1,0.1-0.1,0.1-0.1l0,0c0,0,0-0.1,0-0.1l0,0c0,0,0,0-0.1-0.1
			C159.9,105.2,159.8,105.3,159.7,105.3L159.7,105.3z"/>
		<path d="M147,102.9L147,102.9c-0.1,0-0.1,0-0.1-0.1l0,0c-0.1,0.1-0.1,0.1,0.1,0.3c0,0,0.1,0,0.1,0.1c0,0,0.1,0,0.1,0.1
			c0,0,0,0.1,0.1,0.1l0,0l0,0l0-0.1c0-0.1,0-0.1,0-0.2c0,0-0.1,0-0.1-0.1C147,103,147,102.9,147,102.9z"/>
		<path d="M147.6,103.8c0,0,0,0-0.2-0.1c-0.1,0.2-0.1,0.3,0,0.3c0,0.1,0.4,0.5,0.4,0.5c0.1,0,0.1,0,0.1,0.1c0,0.2,0.1,0.2,0.1,0.2
			c0-0.1,0-0.2,0-0.3c0,0,0,0-0.1,0c0,0,0-0.1-0.1-0.1c0,0-0.1,0-0.1,0c-0.1,0-0.2-0.2-0.2-0.2C147.6,104,147.7,103.9,147.6,103.8z"
			/>
		<path d="M160.8,105.9c-0.1,0.1-0.2,0.1-0.3,0.2c0,0,0,0,0,0.2c0,0,0,0.2,0.3,0c0-0.1,0.1-0.2,0.2-0.1c0.1,0,0.1,0.1,0.1,0.1
			c0,0.1,0.1,0.1,0.1,0.2c0.1,0,0.1,0.1,0.2,0.1c0.1,0.1,0.3,0.1,0.4,0l0.1-0.1c0.1-0.1,0.1-0.2,0.1-0.2c0.2,0,0.3-0.3,0.5-0.3l0,0
			c0,0,0.2,0.1,0.3,0.2c0.1,0.2,0.1,0.5,0.1,0.7l0,0c0,0,0.2,0,0.3-0.1c0.1,0,0.1,0,0.1,0.2c0,0.1,0.1,0.1,0.2,0.1
			c0-0.1,0.1-0.2,0.1-0.2c0-0.1,0-0.1-0.1-0.1c0-0.1,0-0.1-0.1-0.2l-0.3-0.1c0.1-0.2,0.1-0.3,0.2-0.5c-0.1,0-0.1,0-0.2,0
			c0-0.1,0.1-0.2,0.1-0.4c0.1,0,0.1,0,0.2,0c0,0,0-0.1,0-0.1c-0.1,0-0.1-0.1-0.1-0.2c0,0-0.1,0-0.1,0c0,0-0.1,0-0.2,0
			c0-0.1,0-0.2,0-0.3l0,0l0,0c0,0,0,0-0.2-0.3c-0.1-0.1-0.2,0-0.3-0.1c0,0,0,0,0-0.1l0,0c-0.1,0-0.1,0-0.2,0c-0.1,0-0.1-0.1-0.2-0.2
			c-0.1,0-0.2,0-0.3,0l0,0h0h0l0,0h0h0h0l0,0h0l0,0h0h0h0h0h0h0l0,0c-0.2,0-0.3-0.3-0.5-0.3c0,0,0,0-0.2,0.1c-0.1,0.1-0.2,0-0.3,0.1
			c-0.1,0.1-0.1,0.1-0.1,0.2c0,0.3-0.2,0.3-0.5,0.2c-0.1,0,0-0.2-0.2-0.2c-0.1,0-0.2,0.1-0.3,0.1c-0.1,0-0.3,0-0.4,0
			c0,0.1,0,0.1,0,0.2c0.1,0.1,0.1,0.1,0.1,0.3c0,0,0.1,0,0.1,0l0-0.1c0.1,0,0.1-0.1,0.1-0.1c0.1,0.1,0.3,0,0.4,0.2
			c0.1,0.2,0.1,0.2,0.2,0.2c0.3-0.1,0.5,0,0.6,0.2c0.2,0.3,0.2,0.4,0.2,0.5C160.9,105.8,160.9,105.9,160.8,105.9z"/>
		<path d="M131.5,95.4C131.5,95.4,131.5,95.4,131.5,95.4c0.1,0,0.1,0,0.2,0c0,0,0-0.1,0-0.2c0.1-0.3,0.1-0.4,0.3-0.4l0,0
			c0,0,0,0.1,0.1,0.1c0,0,0,0,0.1,0c0-0.5,0.1-0.7,0.1-0.7c0,0,0,0,0.1,0c0,0,0.1,0,0.1-0.1l0,0c0-0.1,0-0.2-0.1-0.3
			c0-0.1-0.1,0-0.2-0.1c-0.1,0-0.1,0-0.1-0.2c0,0,0-0.1,0-0.1c-0.1-0.1-0.2-0.2-0.3-0.2c0,0-0.2,0-0.1-0.2c0.1-0.1,0-0.2,0-0.2
			c0,0-0.1-0.1-0.1-0.1c0,0-0.1,0-0.1,0c0,0.2,0,0.2-0.1,0.3C131.5,93.8,131.4,94.6,131.5,95.4C131.4,95.4,131.4,95.4,131.5,95.4z"
			/>
		<path d="M155.1,99.4c0,0,0,0.1-0.1,0.1c0,0-0.1,0-0.2,0.1c0,0-0.1,0.2-0.2,0.2c-0.1,0-0.1,0.1-0.2,0.3l0,0c0.1,0,0.4,0,0.3-0.2
			c0,0,0-0.3,0.5-0.3c0-0.5,0.2-0.6,0.3-0.6c0,0,0.1,0,0.1-0.1l0.1-0.6l0,0c0,0.1,0,0.1-0.1,0.1c-0.1,0.1-0.1,0.1-0.1,0.2
			c0,0,0,0-0.1,0.2c0,0-0.1,0-0.1,0.1c0,0.1,0,0.1-0.1,0.2c0,0-0.1,0-0.1,0c0,0,0,0,0,0.1c0,0,0,0.1,0,0.1
			C155.2,99.3,155.2,99.4,155.1,99.4z"/>
		<path d="M145.4,95.8C145.4,95.8,145.4,95.8,145.4,95.8C145.4,95.7,145.4,95.7,145.4,95.8L145.4,95.8z"/>
		<path d="M145.4,95.4c0,0,0,0.1,0,0.1c0,0.1,0,0.2,0,0.3c0.1,0,0.2,0,0.3,0.1c-0.1,1.1-0.1,1.1,0.3,1.1c0.1,0,0.1,0,0.1,0
			c0.1-0.1,0.1-0.1,0.4-0.2c0.1-0.1,0.1-0.1,0.1-0.1c0,0,0-0.1,0-0.1c0,0,0.1-0.1,0.1-0.1c0.5,0.1,0.2,0.7,0.6,1
			c0,0.1,0,0.1-0.1,0.4c0.3,1.2,0.3,1.2,0.1,1.3c0,0.2,0,0.2,0,0.4c0,0,0,0.1,0,0.1c-0.3,1,0.8,1.3,1,2.1c0,0.1,0,0.3,0,0.4
			c0.2,0.6,1.1,1,1.2,1c0.1,0,0.1,0,0.1,0c0,0,0-0.1,0-0.1c0-0.1-0.1-0.1-0.2-0.2c-0.2-0.3-0.2-1.2-0.2-1.2c0,0,0-0.1,0-0.1
			c0-0.1,0-0.1,0-0.2c0-0.2,0-0.2,0-0.3c-0.8,0.1-0.7-0.8-1.2-1.1c0,0,0-0.1,0-0.1c0-0.1,0-0.1,0-0.1c0-0.1-0.1-0.1-0.2-0.2
			c0-0.1,0-0.3,0-0.4c0.1-0.3,0.6-1.1,0.6-1.1c0.2,0.1,0.2,0.4,0.4,0.5c0.1,0,0.1,0,0.1,0c0.1,0,0.2-0.1,0.2,0
			c0.5,0.9,0.5,0.9,0.9,1c0,0,0.1,0.1,0.1,0.1c-0.2,0.3-0.1,0.5,0,0.7c0.2-0.2,0.8-1,0.8-1c0.1,0,0.9,0.1,0.9-1c0-0.2,0-0.3,0-0.4
			c0-0.3-0.2-0.5-0.2-0.8c-0.2-0.1-0.2-0.1-0.5-0.5c-0.3-0.2-0.4-0.5-0.6-0.8c0-0.4,0-0.4,0.2-0.5c0.1-0.7,0.1-0.7,1.2-0.8
			c0,0,0,0.1,0,0.1c0,0.2,0,0.4,0,0.6c-0.4,0.5-0.4,0.5-0.4,0.7c0.3,0,0.5,0,0.7,0c0-0.2,0.1-0.5,0.1-0.7c0,0-0.1,0-0.1-0.1
			c0-0.2,0-0.4,0-0.5c0,0,0.1,0,0.1,0c0.1,0,0.1,0,0.1,0c0.4-0.2,0.4-0.2,0.6-0.3c0,0,0.1,0,0.1,0c1.1,0.2,3.1-1.9,3.3-3.4
			c0-0.1-0.1-0.2-0.1-0.2c-0.1,0-0.2,0-0.3,0c0-0.1,0-0.2,0-0.3c0-0.1,0.1-0.1,0.1-0.1c-0.1-0.2-0.2-0.5-0.3-0.7
			c-7.6,0.1-16.6,0-23.8-0.2c7.2,0.3,16.3,0.3,23.8,0.2c0-0.2,0-0.2-0.6-0.8c0-0.1,0-0.1,0-0.1c0-0.1,0.1-0.2,0.1-0.2
			c0,0,0-0.1,0-0.1c0-0.1,0-0.2,0-0.2c0.1,0,0.1,0,0.2,0c0-0.1,0.1-0.1,0.1-0.2c0,0,0.1,0,0.1,0c0.1,0,0.1,0,0.2,0c0,0,0.1,0,0.1,0
			c0,0,0.1-0.1,0.1-0.1c0,0,0-0.1,0-0.1c-0.1,0-0.3,0-0.4,0c0-0.1-0.1-0.1-0.2-0.2c-0.1,0-0.2,0-0.3,0c0,0.1,0,0.2,0,0.3
			c-0.1,0-0.2,0.1-0.2,0.1c0-0.1-0.1-0.3-0.1-0.4c-0.2,0-0.3,0-0.5,0c-0.3-0.2-0.1-0.5,0-0.5c0.1,0,0.2,0,0.3,0
			c0.2-0.3,0.6-0.4,0.8-0.7c0,0,0,0,0.1,0l0.1,0.1c-0.1,0.2-0.3,0.8-0.3,0.8c0,0,0.1-0.1,0.1-0.1c0.1,0,0.3,0,0.4,0
			c0.1-0.1,0.2-0.3,0.4-0.3h0c0.1,0,0.1,0.1,0.2,0.1c0,0,0,0,0,0h0h0h0h0h0h0l0,0c0.2,0.1,0.3,0.1,0.3,0.2c0,0.1,0,0.1,0,0.1
			c0,0.1,0,0.1-0.1,0.2c0,0.1,0,0.3,0,0.4c0,0,0.1,0,0.1,0l0.1,0c0.3-0.3,0.4,0.4,0.5,0.6c0,0.2,0.1,0.3,0.1,0.5
			c0,0.1-0.1,0.2-0.1,0.3c0,0.1,0,0.2,0,0.3c0.1,0,0.3,0,0.4,0c0.1,0,0.2-0.1,0.3-0.2c0.1-0.1,0.2-0.2,0.3-0.3c0.1,0,0.1,0,0.2-0.1
			c0-0.3,0-0.3,0-0.4c0-0.1,0-0.2,0-0.2c-0.1,0-0.7-0.6-0.7-0.7c-0.1-0.1-0.1-0.1-0.1-0.7c0,0,0,0,0.2,0c0,0,0.1,0,0.1,0
			c0,0,0.1,0,0.1,0c-0.1-0.2-0.1-0.5-0.2-0.7c0-0.2,0-0.2,0-0.2c0.3,0,0.1-0.3,0.3-0.4c0.2-0.1,0.3,0.3,0.5,0.2
			c0.2-0.1,0.3-0.3,0.3-0.3c0.2,0,0.2,0,0.5-0.7c0.1-0.3-0.1-0.7,0.2-0.9l0-0.1c0.3-0.1,0.1-0.4,0.2-0.5c0,0,0-0.1,0-0.1l0,0
			c0-0.1,0-0.1-0.1-0.2c0,0,0-0.1,0-0.1c0-0.2,0-0.2,0-0.3c0-0.1,0-0.1-0.1-0.1l0-0.1c0,0,0-0.1,0-0.1c-0.1-0.1-0.1-0.5-0.1-0.5
			l0.1,0c0,0,0.1,0.1,0.1,0.1c0,0,0.4,0.3,1,2.5c0,0,0.1,0,0.1,0l0,0c0,0,0-0.1,0-0.1c0,0,0-0.1,0-0.1l0.1,0
			c0.1,0.2,0.1,0.2,0.3,0.3c-0.1-0.2-0.4-0.3-0.5-0.5c-0.1-0.2-0.1-0.5-0.2-0.7c0,0,0,0,0-0.2l0.1,0c0.1,0,0.2,0.1,0.2,0.1
			c0,0,0-0.1,0-0.1c-0.2-0.5-0.7-0.8-0.9-1.3c0-0.1,0-0.1,0-0.1c0,0-0.1-0.2-0.2-0.3l0,0h0h0h0l0,0c-0.2-0.1-0.2-0.4-0.4-0.6
			c0,0-0.1,0-0.1,0c0.1,0.2,0.2,0.3,0.3,0.5c0,0-0.1,0-0.1,0c0,0,0,0.1,0,0.1l0,0.1c0,0,0,0.1,0,0.1c0.1,0.1,0.1,0.1,0.1,0.2
			c0,0,0,0-0.1,0c-0.1,0-0.1,0-0.2-0.4c0,0,0,0,0-0.1c-0.2-0.2-0.5-0.3-0.7-0.5c-0.1,0-0.1,0-0.2,0c0.1,0.1,0.1,0.2,0.2,0.3
			c-0.1,0-0.1,0-0.2,0c0,0-0.2-0.3-0.4-0.3l0,0c0,0.1,0.1,0.1,0.1,0.2l0,0.1c0,0-0.1,0-0.1,0c0,0,0-0.1-0.1-0.1
			c-0.1-0.2-0.1-0.2-0.2-0.3c0,0,0,0.1,0,0.1c0,0,0,0-0.1,0l-0.1,0c-0.1-0.1-0.1-0.2-0.1-0.3c0.2-0.1,0.1-0.4,0.4-0.4
			c0-0.1-0.1-0.3,0-0.4c0-0.2,0-0.2,0.1-0.3l0-0.1c0.1,0,0.1,0,0-0.4l0,0c0,0,0.1,0,0.1,0c-1.3,0-2.8,0.1-4.4,0.1
			c1.6,0,3.1-0.1,4.4-0.2c0-0.1,0-0.2,0-0.3c0.1,0,0.1,0,0.2,0l0.1,0c0,0,0,0,0.1,0l0.1,0c0,0,0,0,0.1,0l0.1,0c0,0,0,0,0,0
			c0.2,0.1,0.2,0.1,0.3,0l0,0c0.2,0,0.3,0,0.5,0c0,0-0.1-0.1-0.1-0.1c-0.1-0.1-0.1-0.1-0.1-0.2c0.1,0.1,0.1,0.1,0.2,0.1
			c0.3-0.2,0.3,0.3,0.5,0.3c0.1,0,0.1,0,0.2,0c0-0.1,0-0.1,0-0.2c0,0,0,0,0.2,0.1l0-0.1c0,0,0,0,0.1,0c0.1,0,0.1,0,0.1,0
			c0,0,0,0-0.2-0.2l-0.1,0c-0.1-0.1-0.1-0.1-0.2-0.2l0-0.1l0-0.1c0,0,0-0.1,0-0.1c-2.1-1.9-4.6-3.3-7.2-4.3c0,0,0,0,0,0
			c0,0,0,0,0,0.1l0.1,0c0.1,0,0.1,0,0.2,0.1c0,0,0,0-0.3-0.1c-0.1,0-0.1-0.1-0.1-0.1c0,0-0.1,0-0.1,0c0,0,0,0.1,0,0.1
			c-0.2,0-0.4-0.1-0.4-0.1l0,0c0,0-0.1,0-0.1,0l0,0.1c0.1,0.1,0.1,0.1,0.2,0.2c0,0-0.1,0-0.1,0c-0.2-0.2-0.5-0.2-0.7-0.4l0,0
			c0-0.1-0.4-0.5-0.7-0.6c0,0,0,0,0,0h0h0h0h0l0,0h0l0,0.1c-0.3,0-0.4-0.2-0.6-0.2l-0.1,0c0,0.1,0.1,0.1,0.1,0.2
			c0.1,0.1,0.1,0.1,0.1,0.1l0,0c-0.1,0-0.1,0-0.2,0c-0.1,0-0.2,0.1-0.4-0.1c0,0-0.1,0-0.1,0c0,0-0.1,0-0.1,0
			c-0.1-0.1-0.1-0.1-0.1-0.1c-0.2-0.1-0.2-0.1-0.3,0l0,0c-0.1,0-0.2,0-0.2,0l0,0c0,0-0.1,0-0.1,0c-0.1,0-0.1,0-0.1,0
			c-0.1,0-0.1-0.1-0.2-0.2c0,0,0,0.1,0,0.1c0,0-0.1,0-0.1,0l-0.1-0.1h0.1l0-0.1c0-0.1,0-0.1,0-0.1c0,0-0.1,0-0.1,0c0,0-0.1,0-0.1,0
			c0,0,0,0.1,0,0.1c-0.1,0.1-0.2,0.1-0.2,0.1l0,0c0,0,0,0,0.1,0.1c0,0,0,0,0,0l-0.1,0.1c0,0,0,0,0,0c-0.1,0-0.1,0-0.2,0
			c-0.1,0-0.1,0-0.1,0c-0.1,0-0.1,0-0.1,0l0,0c0.1-0.1,0.3-0.3,0.3-0.3c0.1,0,0.1,0,0.1,0l0.1-0.1c0.1-0.1,0.1-0.1,0.1-0.1
			c0,0,0.1,0,0.1,0c0,0,0-0.1,0-0.1c0-0.1,0.1-0.1,0.1-0.1c0,0,0-0.1-0.1-0.1c0,0,0,0,0,0c0,0,0,0,0,0c-0.7-0.1-1.4-0.2-2.1-0.2
			c0,0,0,0,0,0c0,0,0,0-0.3,0c0,0,0,0,0,0c0,0,0,0-0.1,0c0,0,0,0,0,0c0,0-0.1,0-0.1,0c0,0-0.1,0.1-0.1,0.1c-0.1,0-0.1,0-0.2,0
			c-0.1,0-0.2,0.1-0.3,0.1c0,0-0.1,0-0.1,0c-0.2,0.1-0.6,0.3-0.6,0.3c0,0,0.1,0.1,0.1,0.1c0,0,0,0,0,0.1c-0.3,0-0.3,0-0.4,0.1
			c-0.1,0-0.1,0-0.3,0c-0.1,0-0.1,0-0.2,0l-0.1,0c-0.1,0-0.2,0-0.2,0c0,0-0.1,0-0.1,0.1c0,0.1,0,0.1,0.1,0.2c0,0,0,0,0,0
			c0,0,0,0.1,0,0.1c0,0,0.1,0,0.1,0.1l0.1,0c0,0,0.1,0,0.1,0c0,0,0,0.1,0,0.1c0,0,0,0,0,0.1c0,0-0.1,0-0.1,0.1
			c-0.1,0-0.2-0.1-0.3-0.1l0-0.1c-0.1,0-0.2,0-0.2,0l0-0.1c-0.2,0-0.3,0.1-0.3,0.1c0.1,0,0.1,0,0.2,0.1c0,0-0.1,0-0.1,0.1
			c0,0-0.1,0-0.1-0.1c-0.1,0-0.1,0-0.1,0c0,0-0.1,0.1-0.2,0.1c0,0,0,0.1,0,0.1c0.1,0,0.1,0,0.1,0h0h0h0h0h0l0,0h0
			c0.1,0,0.1,0,0.2,0.2c0,0,0,0-0.4-0.2c0,0,0-0.1,0-0.1c0-0.1,0.1-0.1,0.1-0.1c0.1-0.3,0.1-0.3,0.1-0.3c-0.1,0-0.1,0-0.1,0h0h0h0h0
			h0h0h0c-0.1,0.2-0.1,0.2-0.1,0.3l0,0.1c-0.2,0-0.4,0.2-0.4,0.2l0,0c0,0.3,0,0.3-0.2,0.5l0,0c0,0.1-0.1,0.2-0.1,0.3
			c0.1,0.1,0.2,0.1,0.2,0.1c0,0,0.1-0.1,0.2-0.1c0,0,0,0,0,0c0.3,0.4,0.3,0.5,0.1,0.6c0,0,0.1,0.1,0.1,0.1c0,0,0.1,0.1,0.2,0.1
			l0,0.1c0,0-0.1,0-0.1,0c-0.1,0-0.1,0-0.1,0c0,0-0.1-0.1-0.1-0.2c0-0.1,0-0.1,0-0.1c0,0,0-0.1,0-0.1l-0.1-0.1c0,0,0-0.1,0-0.1
			c-0.2-0.1-0.6-0.2-1,0.7c-0.1,0-0.1,0-0.4,0.2c0,0,0,0.1-0.1,0.1c-0.1,0.1-0.1,0.1-0.3,0c-0.1,0-0.2,0-0.3,0l0,0
			c0.3-0.2,0.7-0.2,1-0.4c0.1,0,0.2-0.1,0.4-0.4c-0.1,0-0.1,0-0.2,0c0,0,0,0,0.2-0.4l0,0c0.2-0.3,0.2-0.3,0.2-0.5
			c0.1-0.1,0.1-0.2,0.2-0.3c0,0,0.1,0,0.1,0l0.1-0.2c-0.1,0-0.1,0-0.2-0.1c0,0-0.1,0-0.1,0c-0.1,0-0.2,0.1-0.4,0.1
			c-0.2,0.3-0.4,0.4-0.6,0.5c-0.1,0-0.1,0-0.1,0c0,0-0.1,0-0.1,0c0,0,0,0.1,0,0.1c0,0.1,0,0.1,0,0.1c0,0.2-0.2,0.3-0.2,0.3
			c0,0-0.1,0.1-0.1,0.1c0.1,0.1,0.1,0.1,0.1,0.2c0,0,0,0.1,0.1,0.1c0,0.2,0,0.2-0.1,0.3c0,0,0,0-0.1,0c0,0-0.1,0-0.1,0
			c0,0,0-0.1-0.1-0.1c0,0,0-0.1,0-0.1c-0.2-0.1-0.2-0.1-0.2-0.2c-0.1,0-0.1,0-0.2-0.2c-0.1-0.1-0.2-0.1-0.2-0.1c0,0,0-0.1,0-0.1
			c-0.1,0-0.1,0-0.2,0c0-0.1-0.1-0.1-0.1-0.2c0,0,0-0.1,0-0.1c0,0,0,0,0,0c0,0,0,0-0.2,0.3c0,0,0.1,0,0.1,0.1c0,0.3,0,0.3-0.1,0.4
			c-0.1,0-0.1,0-0.1,0c-0.1,0-0.2,0.2-0.3,0.1c0.1-0.1,0.1-0.2,0.2-0.2c0,0,0,0,0,0c-0.1,0-0.1,0-0.2,0.1c-0.1,0-0.1,0-0.1,0
			c-1.1,1.2-1.9,2.5-2.7,4.1c0.8-1.5,1.7-2.9,2.7-4.1c0,0,0,0-0.1,0.1c-0.1,0-0.1,0-0.1,0c0,0-0.1,0-0.1,0c0,0-0.1,0-0.1,0
			c-0.1,0-0.1,0.1-0.2,0.1c0,0-0.1,0-0.1,0c0,0,0-0.1,0-0.1c0.1-0.1,0.2-0.2,0.2-0.2c0,0,0,0-0.4,0.2c-0.1,0-0.1,0-0.1,0
			c-0.1,0-0.2,0-0.2,0.1l-0.1,0c-0.1,0-0.1,0-0.1,0c-0.4,0.1-0.8,0.4-1.2,0.5c-0.1,0-0.1,0-0.1,0c0,0,0-0.1,0-0.1
			c0.1-0.1,0.1-0.1,0.2-0.2c0.1,0,0.2,0,0.2,0c0,0,0.1-0.1,0.1-0.1l0-0.1c0,0,0-0.1,0.1-0.1l-0.1,0c0,0,0,0,0,0l0-0.1l-0.1,0
			c-0.1,0-0.1,0-0.1,0l-0.1,0c0,0-0.1,0.1-0.1,0.1l0.1,0c-0.1,0.1-0.2,0.2-0.3,0.3c-0.2,0.1-0.2,0.1-0.2,0.2l0,0c0,0,0,0.1,0,0.1
			c0,0,0,0,0,0.1c-0.1,0.1-0.2,0.2-0.3,0.2c0,0-0.1,0-0.1,0c0,0,0,0,0.1-0.1l0-0.1c-0.4,0-0.6,0.3-1,0.3l0,0
			c-0.1,0.1-0.1,0.1-0.2,0.2c0,0.1,0,0.1-0.1,0.2c0,0,0,0,0,0c-0.1,0-0.1,0-0.2,0c0,0,0,0-0.1,0l-0.1,0c0,0,0-0.1-0.1-0.1
			c0-0.1,0-0.1,0.1-0.2c-0.3,0.1-0.3,0.1-0.3,0.2l0,0c0,0-0.1,0.1-0.1,0.1l0,0l0.1,0l0,0c0,0.1,0,0.1-0.1,0.1c-0.1,0-0.1,0-0.2,0
			c0,0-0.1,0-0.1,0.1c0-0.1,0-0.1,0-0.2l-0.1,0c0-0.1,0-0.1,0.3-0.3c0,0-0.1,0-0.1,0l0.2-0.2c0.3-0.3,0.3-0.3,0.3-0.3l0,0
			c0.1-0.1,0.1-0.1,0.1-0.2l0,0c0,0,0.1-0.1,0.1-0.1c0,0.1,0,0.1,0,0.2l0,0h0.1c0,0,0,0.1,0,0.1c0.1,0,0.1,0,0.2,0c0,0,0,0.1,0,0.1
			l0.1,0c0,0,0.1,0,0.1,0l0,0c1-0.4,1-0.4,1-0.7c-0.1,0-0.1,0-0.2,0c0-0.1,0.1-0.1,0-0.2l0,0l0,0l0-0.1c-0.1,0-0.1,0-0.2,0l0,0
			c0,0,0,0,0-0.1c-1.9,0.9-3.7,2.1-5.4,3.5c0.1,0,0.1-0.1,0.2-0.1l0,0c0.1,0,0.1,0,0.2-0.1l0.1,0c0.1,0,0.2,0,0.2,0
			c0,0,0.1,0,0.1-0.1c0,0,0,0,0,0c0,0.1-0.1,0.1-0.1,0.2c0.1,0,0.1,0,0.2,0l0,0.1c0,0-0.6,0.4-0.7,0.3c0,0,0-0.1,0-0.1
			c-0.1,0-0.1,0-0.2,0c0,0,0,0,0,0c-0.1,0-0.1,0-0.2,0.1l0,0c-0.1,0.1-0.2,0.1-0.3,0.2c1,0.1,2.4,0.2,4.3,0.3
			c-1.8-0.1-3.3-0.2-4.3-0.3l0,0l0,0c-0.1,0.1-0.2,0.2-0.3,0.2c0,0,0.1-0.1,0.2-0.1c0,0.1,0,0.1-0.5,0.6c0,0-0.1,0-0.1,0
			c0,0,0-0.1,0-0.1c0,0,0.1-0.1,0.1-0.1c0,0,0,0,0,0c0,0,0.1-0.1,0.1-0.1l0,0c-1.9,1.9-3.5,4.1-4.7,6.5c0,0.1,0,0.2,0,0.3
			c-0.1,0.4-0.3,0.7-0.4,1.1c0,0,0.1,0,0.1,0c0,0.1,0,0.2-0.1,0.4c0,0-0.1,0-0.1,0c0,0,0-0.1,0-0.1c0,0-0.1,0-0.1,0
			c-0.1,0.2,0,0.3,0,0.4c0,0,0.1-0.1,0.1-0.1l0.1-0.1c0,0.2-0.1,0.4-0.1,0.5c0,0.1,0.1,0.1,0.1,0.1c0,0,0.1,0,0.1,0
			c0-0.1,0.1-0.1,0.1-0.2c0,0,0-0.1,0-0.1c0-0.1,0-0.1,0.1-0.2c0,0,0,0.1,0,0.1c0.1,0,0.1,0,0.1,0c0.1-0.1,0.1-0.1,0.2-0.3
			c0,0,0.1,0,0.1,0c0.1-0.1,0-0.2,0-0.3c0,0.1,0,0.1-0.1,0.2c0,0-0.1,0-0.1,0c0-0.1,0-0.1,0.1-0.5c-0.1-0.1-0.1-0.2,0-0.3
			c0,0,0-0.1,0-0.1l0-0.1l0,0c0,0,0,0.1,0.1,0.1c0,0,0,0,0.1,0l0,0c0.1-0.1,0.1-0.2,0.2-0.3c0,0,0.1,0,0.1,0c0,0,0,0.1,0,0.1
			c0,0,0,0,0.1,0c0,0,0,0.1,0,0.1l0,0l0,0.1c-0.3,0.1-0.1,0.4-0.2,0.6c0,0,0,0.1,0,0.1c0,0,0,0.1,0,0.1c0,0,0,0,0,0.2l0,0l0,0l0,0
			l0,0l0,0c0,0.1,0,0.1-0.1,0.2l0,0l0,0.1c0,0.1,0,0.1-0.1,0.2l0,0l0,0c0,0,0.1-0.1,0.1-0.1l0-0.1c0,0,0-0.1,0-0.2c0,0,0-0.1,0-0.1
			c0,0,0,0,0.1,0l0,0l0,0l0,0l0,0c0,0,0,0.1,0,0.1l0,0.1l0,0l0,0l0,0c0,0,0.1,0,0.1,0l0,0c0.1,0,0.1,0,0.1,0l0,0l0,0l0,0l0,0
			c0-0.1,0-0.1,0.1-0.2l0,0l0,0c0,0,0.1,0,0.1,0l0.1,0.1c0,0,0,0.1,0,0.1c0,0,0,0.1,0,0.1l0,0l0,0l0,0l0,0c0.1,0,0.2,0,0.3,0
			c0,0,0-0.1,0-0.1l0,0c0,0,0-0.1,0-0.1l0.1,0l0,0l0,0c0,0,0.1,0,0.1,0c0,0,0,0.1,0,0.1c0.1,0,0.1,0,0.1,0l0,0l0,0l0,0l0,0
			c0,0,0,0.1,0,0.1l0,0c0,0.2,0,0.2-0.1,0.3c-0.1,0.2-0.1,0.4-0.1,0.4l0,0c0,0.1,0,0.1-0.1,0.2l0,0l0,0c0,0,0,0.1,0,0.1l0,0
			c-0.2,0.2-0.2,0.2-0.2,0.3l0,0l0,0l0,0c1,0.1,2.1,0.2,3.4,0.3c-1.3-0.1-2.4-0.1-3.4-0.2c0,0-0.1,0.4-0.2,0.5l0,0l0,0l0,0
			c0,0,0,0-0.1,0l0,0l0,0l0,0l0,0l0,0l0,0l0,0c0,0,0,0,0,0c0,0-0.1,0-0.2-0.1l0,0l0,0l0,0c0.1,0.1,0.1,0.1,0.2,0.1c0,0,0,0.1,0,0.1
			l0,0.1c0,0,0,0.1,0,0.1c0,0,0,0.1,0,0.1l0,0l0,0.1c0,0.1,0,0.3,0,0.4c-0.2-0.6-0.3-0.9-0.4-1c0,0,0,0-0.2,0c0,0-0.1,0.1-0.1,0.1
			l0,0c-0.2-0.1-0.5-0.3-0.8-0.3c-0.2-0.6-0.2-0.6-0.3-0.7c0,0-0.1,0-0.1,0.1c0,0-0.1,0-0.1-0.1c-0.3,1-0.3,1-0.4,1.1c0,0,0,0-0.1,0
			c0-0.1-0.1-0.2-0.1-0.3c-0.4,1.7-0.6,3.5-0.6,5.3c0,6.9,3,13.1,7.7,17.4l-0.1-0.2c0,0,0.1,0,0.1,0c0-0.4,0-0.4,0-0.4
			c-0.8-1.3-0.8-1.3-0.9-2.1c0.1-0.1,0.2-0.1,0.3-0.1c0.2-0.3,0.2-0.3,0-1c0-0.1-0.1-0.1-0.1-0.3c0-0.1-0.1-0.2-0.2-0.3
			c-0.1-0.3-0.2-0.6-0.4-0.9c-0.4-0.4-0.4-1-0.7-1.5c0,0,0-0.1,0-0.2c0-0.1,0-0.2-0.1-0.3l1.3-3c1-0.4,1.1-2,1.2-3
			c0-0.1,0-0.2-0.1-0.4c-0.4-0.1-0.7,0.5-1.2,0.3c0,0-0.1,0-0.1,0c-0.4,0-0.5,0-0.7-0.1c-0.2-0.4-0.2-0.4-0.2-0.5
			c0,0-0.1-0.1-0.1-0.1c-0.1-0.5-0.1-0.5-0.4-0.5c-1.3-2.2-1.3-2.2-1.2-2.6c0-0.1,0-0.1,0-0.3c-0.1-1.6-0.3-2.8-0.5-3.6
			c0,0,0.1,0,0.1,0c0.1,0,0.1-0.1,0.2-0.2l0,0.1c0.1,0.4,0.4,0.8,0.3,1.3c0,0.1,0,0.1,0,0.1c-0.1,0.2,0,0.3,0,0.4
			c0,0.1,0.2,0.1,0.2,0.2l0.2,0.7c0,0.1,0.1,0.3,0,0.4c-0.1,0.2-0.1,0.2,0.2,0.6c0.2,0.2,0.2,0.3,0.3,0.5c0,0.1,0,0.1,0.4,0.7
			c0.1,0.2,0.1,0.4,0.1,0.6c0,0.1,0,0.1,0.1,0.1c0,0,0,0.1,0,0.1c0,0.3,0,0.5,0,0.8c0.1,0.4,0.5,0.5,0.7,0.3
			c0.2-0.3,0.2-0.3,0.3-0.3c0.1,0,0.2,0,0.4,0l0,0c0,0,0.1,0,0.1,0.1l0,0c0-0.1,0.1-0.1,0.1-0.2c0.2-0.4,0.8-0.2,1-0.6
			c0.1-0.1,0.1-0.1,0.4-0.1c0-0.2,0-0.3,0.1-0.3c0.2-0.1,0.2-0.2,0.9-0.1c0,0,0-0.3,0.1-0.5c0.1,0,0.3,0,0.4,0c0,0,0.1-0.4,0.2-0.4
			c0-0.8,0-1.6,0.1-2.3c0,0,0,0-0.1,0.1c0-0.1,0-0.2,0-0.3c-0.1,0-0.1,0-0.1-0.1c0-0.2,0-0.3,0-0.4c0-0.1,0-0.1-0.1-0.2
			c0,0.1,0,0.1-0.1,0.1c-0.1,0.1-0.1,0.1-0.2,0.6c-0.1,0-0.1,0-0.3,0c-0.1,0-0.1,0-0.1,0c-0.1,0-0.1-0.1-0.2-0.1c-0.1,0-0.1,0-0.1,0
			c-0.2,0.1-0.2,0.1-0.3,0.3c0,0-0.3,0-0.3-0.4c0,0,0.1,0,0.1,0c0.1-0.1,0.1-0.1,0.2-0.1l0,0c0.1,0.1,0.3,0.1,0.4,0
			c0-0.1,0-0.1,0-0.1c-0.1,0-0.1,0-0.1,0c0,0-0.1,0-0.1,0c-0.1,0-0.1,0-0.1,0c-0.2-0.1-0.4-0.1-0.6-0.1c-0.1,0-0.1,0-0.1,0
			c0-0.1,0-0.3,0-0.4c0,0,0-0.1,0-0.1l-0.4-0.2c0-0.4-0.2-0.7,0-1.1c0.1-0.2,0.4-0.1,0.5,0c0.2,0.2,0.2,0.6,0.4,0.8
			c0.6,0.6,0.6,0.6,1.1,0.6c0.1,0,0.1,0,0.1,0c0,0,0,0,0.1,0c0.1,0,0.2,0,0.3-0.1c0,0,0.1,0,0.1,0c0.1,0,0.1,0,0.3,0.1l0,0
			c0.1,0.4,0.1,0.4,0.2,0.4c0.1,0,0.3,0,0.4,0c0,0,0,0,0.4,0.2c0.2,0,0.3,0,0.4,0c0,0,0.1,0,0.1,0.1c0.3,0,0.5,0,0.7,0l0.5-0.1
			c0.1,0,0.3,0,0.4,0c0.2,0.2,0.4,0.3,0.9,1.1c0.1,0,0.1,0,0.2,0c0.1,0,0.1,0,0.5,0.2c-0.4,0-0.4,0-0.5,0.1c0,0,0,0.1,0,0.1
			c0.3,0.1,0.4,0.5,0.7,0.5c0.1,0,0.5-0.4,0.5-0.4c0.4,0,0.4,0.7,0.4,1c0,0.1,0,0.1,0,0.2c-0.1,0.7-0.1,0.7,0.9,2.7
			c0,0.1,0,0.2,0,0.2c-0.1,0.6,0.4,1,0.6,1.6c0.3,0.2,0.3,0.2,0.6-0.4c0.4,0,0.4-0.2,0.6-1.6c0-0.2,0-0.3,0-0.5c0-0.4,0-0.4,0.5-0.6
			c0.3-0.6,1.1-0.8,1.3-1.5c0.1,0,0.2,0,0.2-0.1c0.1-0.2,0.1-0.2,0.3-0.2h0h0h0h0l0,0h0h0h0c0.2,0,0.2-0.1,0.3-0.5
			c0.1-0.1,0.3-0.1,0.4-0.1c0,0,0.1,0,0.1,0.1c0.1,0,0.1,0,0.1,0c0.1-0.1,0.3-0.1,0.4-0.3c0.2-0.1,0.3-0.1,0.4-0.1
			c0-0.1,0-0.2,0-0.3c0.1,0,0.2,0,0.3,0.1c0.1,0.3,0.2,0.7,0.4,1C145.4,95.3,145.4,95.3,145.4,95.4z"/>
		<path d="M129.7,108.9c0,0,0,0,0.1,0.2c0,0,0,0,0,0.3c0,0,0.2,0.5,0.3,0.6c0,0,0.1,0.1,0.2,0.3l0,0c-0.1,0-0.1,0-0.1,0
			c0,0.2,0.1,0.4,0.2,0.6c0,0,0,0,0,0.1c0.1,0.1,0.2,0.2,0.3,0.3c0,0,0,0.1,0.1,0.1c0.2,0.2,0.2,0.2,0.2,0.4c0.1,0,0.2,0,0.3,0
			c0.1,0,0.1,0.1,0.1,0.1c0,0,0.5,0.1,0.5,0c0.1-0.3-0.2-0.5-0.3-0.7c-0.1-0.1,0-0.3,0-0.4c-0.1-0.2-0.2-0.3-0.2-0.5l0,0
			c0,0,0.2-0.2,0.2-0.2c0-0.2-0.2-0.2-0.2-0.4c0-0.1,0-0.2,0-0.3c0,0,0-0.1-0.1-0.1c0,0-0.1-0.1-0.1-0.1c0,0,0,0,0-0.1l0,0
			c0.1,0,0.1,0,0.1-0.2c0,0,0,0,0-0.1c-0.4-0.9-0.4-0.9-0.8-1.1c0.1,0.3,0.1,0.3,0.1,0.3c0,0-0.1,0.2-0.2,0.3
			c-0.1,0.1,0.1,0.2,0,0.3c-0.1,0-0.1,0-0.1,0c0,0.1,0.1,0.2,0,0.3C129.8,108.8,129.8,108.8,129.7,108.9z"/>
		<path d="M140.1,100.8c0,0,0.2,0.1,0.3,0.2c0,0,0,0,0.4,0c0-0.3,0-0.3,0-0.3c0-0.1,0-0.1,0-0.2c0,0,0-0.1,0-0.1l0-0.1l0,0l-0.2-0.2
			c0,0-0.1,0-0.1-0.1c-0.1-0.1-0.1-0.1-0.1-0.1c0,0-0.1-0.1-0.1-0.3l-0.1,0c0,0,0,0,0,0c0,0,0,0-0.1,0.1c0,0,0,0.1,0,0.1
			c0,0,0,0.1,0,0.1l0,0c0,0,0,0,0,0.1c0,0,0,0.1,0,0.1c0,0,0,0.1,0,0.1c0,0,0,0,0,0.1C140,100.2,140,100.7,140.1,100.8z"/>
		<path d="M150.1,72L150.1,72L150.1,72c0,0.1,0.1,0.1,0.1,0.1l0.1,0h0C150.2,72.1,150.2,72,150.1,72L150.1,72z"/>
		<path d="M136.9,73.3C136.9,73.4,136.9,73.4,136.9,73.3l-0.1,0.1c-0.1,0.1-0.1,0.1-0.2,0.2c0,0,0.1,0,0.1,0c0.1,0,0.1-0.1,0.1-0.1
			l0,0c0,0,0.1,0,0.1,0l0.1-0.1l0,0c-0.1,0-0.1,0,0-0.1C137.1,73.3,137,73.3,136.9,73.3z"/>
		<path d="M123.2,85.5c0,0,0,0,0.2-0.4l0,0C123.3,85.2,123.2,85.3,123.2,85.5C123.2,85.4,123.2,85.4,123.2,85.5z"/>
		<path d="M164.6,104.8l-0.1,0.2l0,0c0,0,0,0-0.3,0l-0.1,0l-0.1,0c-0.1,0-0.1,0-0.2,0l0,0c0,0-0.1,0.1-0.1,0.1c0,0.1,0,0.1,0,0.2
			l0,0c0.1,0,0.1,0,0.2,0c0,0,0.1,0,0.1,0l0.2,0c0.1,0,0.1-0.1,0.1-0.1c0,0,0,0,0,0c0.1,0,0.1,0,0.1,0l0,0l0,0c0,0,0.1-0.1,0.1-0.1
			c0-0.1,0-0.1,0.1-0.2c0,0,0.1-0.1,0.1-0.1c0,0,0,0,0-0.1c0,0,0-0.1,0-0.1c0,0-0.1,0-0.1,0l-0.1,0.1
			C164.6,104.7,164.6,104.7,164.6,104.8z"/>
		<path d="M165.4,105.3L165.4,105.3c0-0.1-0.1-0.2-0.1-0.2c0,0,0,0,0-0.1c0,0,0-0.1,0-0.1l0,0l-0.1,0c0,0.1,0,0.1,0,0.2
			c0,0,0,0.1,0,0.1l0,0.1c0,0,0,0,0,0.1c0,0,0,0.1,0,0.1l0,0l0,0l0,0l0,0c0,0,0,0,0-0.1C165.4,105.5,165.4,105.4,165.4,105.3
			C165.4,105.4,165.4,105.4,165.4,105.3L165.4,105.3z"/>
		<path d="M141.6,72.2C141.7,72.2,141.7,72.2,141.6,72.2l0.1,0c0,0,0,0,0,0l0,0l0,0c0,0,0.1,0,0.1-0.1l0-0.1c0,0-0.1,0-0.1,0
			C141.9,72,141.8,72,141.6,72.2L141.6,72.2z"/>
		<path d="M140,71.7C140,71.7,140,71.7,140,71.7c-0.5,0.1-0.5,0.1-0.6,0.2c0.1,0,0.1,0,0.1,0c0,0-0.1,0-0.1,0.1l0,0l0,0
			c0,0-0.1,0-0.1,0h0c0,0,0,0-0.1,0c0,0-0.1,0.1-0.2,0.1l-0.6,0.3c-0.1,0.1-0.1,0.1-0.4,0.3c0,0,0.1,0,0.1,0c0.1,0,0.1,0,0.1-0.1
			l0,0c0,0,0,0-0.1,0.1c0,0,0.1-0.1,0.1-0.1c0,0.1,0,0.1,0,0.2l-0.2,0.1l0,0l0,0c0.1,0,0.1,0,0.2,0c0.1,0,0.2,0.1,0.3,0.1l0.1,0
			c0,0,0,0,0.1,0c0,0,0.1-0.1,0.1-0.1l0,0l0,0c0,0,0.1,0,0.1-0.1l0,0l0,0c0,0,0,0,0.1-0.2l0,0l0,0c0,0,0.1-0.1,0.1-0.1l0,0
			c0.2-0.1,0.3-0.2,0.4-0.3l0,0l0,0l0,0l0,0c0,0,0.6-0.2,0.7-0.4c0,0,0.2,0,0.3-0.1c0,0,0,0,0.1,0c0,0,0.1,0,0.2-0.1
			C140.7,71.5,140.4,71.5,140,71.7C140.1,71.6,140.1,71.6,140,71.7L140,71.7z"/>
		<path d="M156,104c0.1,0,0.1-0.1,0.2-0.1c0.1,0,0.2,0,0.3,0l0,0c0,0,0.1,0,0.1-0.1c0-0.2-0.3-0.3-0.3-0.3c0,0-0.1,0-0.1,0l0,0
			c0,0-0.1,0-0.1,0.1c0,0-0.1,0.2-0.3,0.2c-0.1,0-0.2,0-0.2,0c-0.1,0-0.1-0.1-0.2-0.1c0,0,0,0-0.1,0c0,0-0.2,0.2-0.2,0.3
			c0,0,0,0.1,0,0.1l0,0c0,0,0,0.1,0,0.2c0,0,0,0-0.1,0.1l-0.1,0l0,0c-0.2,0.2-0.2,0.4,0.2,0.4c0,0,0,0,0,0.1c0,0.1-0.1,0.2-0.1,0.4
			c0,0.1,0,0.1,0,0.1l0,0c0,0,0,0,0.1,0.2c0.1-0.1,0.2-0.1,0.2-0.1s0,0,0-0.1c0-0.1,0-0.2,0-0.3c0,0,0-0.1,0-0.1
			c0-0.2,0.1-0.3,0.1-0.5c0.1,0,0.1,0,0.2,0c0,0.1,0,0.1,0,0.2l0,0.1c0,0,0,0.1,0,0.1c0.3,0.1,0.3,0.1,0.3,0.1c0,0.1,0,0.1,0,0.2
			c0,0.1-0.1,0.1-0.1,0.2c0,0,0,0.1,0,0.1c0,0,0,0.2,0.1,0.2c0.1,0,0.2,0,0.2,0c0,0,0-0.1,0-0.1c0,0,0-0.1,0-0.1c0-0.1,0-0.2,0-0.2
			c0,0-0.1,0-0.1,0c0,0,0,0-0.1-0.1c-0.1-0.1-0.1-0.1,0-0.3c0,0,0-0.1,0-0.1c0-0.1,0-0.1-0.1-0.2c0,0-0.1,0-0.1-0.1l0-0.1
			c0,0,0-0.1,0-0.1C155.8,104,155.9,104,156,104z"/>
		<path d="M158.6,104L158.6,104C158.6,104,158.6,104,158.6,104c0,0,0,0.1,0,0.1c0.1,0,0.1,0,0.2,0c0-0.1,0-0.2,0-0.2
			c-0.1,0-0.1,0-0.2,0C158.7,103.9,158.7,104,158.6,104z"/>
		<path d="M158.8,106.2c0-0.1,0-0.2,0-0.2c0,0,0,0,0-0.1c-0.2,0.1-0.3,0.2-0.3,0.2c0,0-0.1,0.1-0.1,0.2c0,0,0,0,0,0.1
			c0.1,0,0.1,0,0.2,0C158.7,106.3,158.8,106.3,158.8,106.2z"/>
		<path d="M159.1,103.4c0,0,0.1-0.1,0.1-0.2c0,0,0-0.1,0-0.1l-0.1-0.1l0,0c0,0,0,0-0.1,0l0,0l0,0c0,0,0,0,0,0.1c0,0,0,0.1-0.1,0.1
			l0,0.1c0.1,0.1,0.1,0.1,0.1,0.1L159.1,103.4z"/>
		<path d="M160.8,103.9C160.8,103.9,160.8,103.8,160.8,103.9c0-0.1-0.1-0.1-0.1-0.1c0-0.2,0-0.2,0-0.2l0,0c0,0,0,0,0-0.1
			c0,0-0.1,0-0.1,0c0,0-0.1,0-0.1,0c0,0,0,0.1,0,0.1l0,0.1c0,0.1,0,0.2-0.1,0.2C160.6,103.9,160.7,103.9,160.8,103.9z"/>
		<path d="M158.6,104.6C158.6,104.6,158.6,104.6,158.6,104.6c0.1,0.1,0.1,0.1,0.2,0.1l0,0c0-0.1,0-0.2,0-0.2c-0.1,0-0.2,0-0.2,0
			c0,0-0.1,0-0.1,0c0,0,0,0-0.1,0c-0.1,0-0.2-0.1-0.3-0.1c-0.1,0-0.1,0-0.1,0.2c0,0,0-0.1,0-0.1c0,0,0,0.1,0,0.1c0,0,0,0,0,0.1
			c0.1,0,0.1,0,0.2,0c0.1,0,0.1,0,0.1,0c0,0,0,0,0.1,0l0.1,0C158.4,104.5,158.4,104.5,158.6,104.6z"/>
		<path d="M159.1,89.4c0,0.1,0,0.1,0,0.2c-0.1,0.2-0.1,0.5,0.1,0.5c0,0,0.1,0,0.1,0c0-0.4,0-0.4,0.1-0.5c0.1-0.1,0.1-0.1,0.1-0.1
			c0-0.2-0.1-0.3-0.2-0.5c-0.1,0-0.1,0-0.2,0c0,0,0-0.1,0-0.1c0.1-0.1,0.1-0.1,0.2-0.1c0.1,0,0.1,0,0.2-0.1c0,0.2,0.1,0.4,0.1,0.5
			c0,0,0.1,0,0.1,0c0.1,0,0.2-0.1,0.2-0.1c0.1-0.1,0.1-0.2,0.1-0.2c0.1-0.1,0.2,0,0.2-0.1c0,0,0-0.1,0-0.1c0,0,0,0,0.1,0
			c0.2,0.2,0.2,0.2,0.2,0.2c0.2,0,0.1-0.2,0.3-0.2c0-0.1,0-0.1-0.1-0.3l0.1,0c0.2,0,0.5,0,0.7,0c0.1-0.2,0.4-0.1,0.3-0.4
			c0-0.1-0.1-0.3-0.1-0.4c0-0.1,0-0.2,0-0.3l0-0.1c0-0.1,0-0.1-0.1-0.2c0,0,0-0.1,0-0.1c0-0.1,0-0.1,0.1-0.2c0,0,0-0.6-0.1-0.9
			c0,0-0.4-0.7-0.7-0.8c0,0,0-0.1,0-0.1c0.1,0,0.2,0,0.3,0l0.1-0.1c0,0,0,0,0,0c0.2,0.1,0.2,0.1,0.2,0.1c0.1,0.1,0.1,0.1,0.3,0.1
			c0-0.1,0-0.1-0.1-0.3c0.1,0,0.2,0,0.3,0c0.1-0.1,0.1-0.1,0.1-0.1c0-0.1-0.1-0.2-0.1-0.4c0.1-0.1,0.1-0.1,0.2-0.1
			c0-0.1,0-0.1,0.2-0.1c0,0,0,0,0.1,0c0,0,0,0,0.1,0c0-0.4,0-0.4,0-0.4c0,0,0-0.1,0-0.1l0,0c-0.1,0.1,0,0.2-0.1,0.3
			c-0.1,0.1-0.1,0.1-0.3,0.1c0,0,0,0-0.1,0l0,0c0,0,0,0-0.1,0l-0.1,0c0,0.1-0.1,0.2-0.2,0.2c0,0-0.1,0-0.2-0.1
			c-0.1-0.1-0.2-0.2-0.4-0.3c-0.1-0.1-0.3-0.1-0.4-0.1c0,0.2,0.2,0.4,0.2,0.6c-0.1,0.2,0.1,0.4-0.1,0.5c-0.1,0-0.1-0.1-0.1-0.1
			c0,0.1,0,0.1,0,0.2l0,0c-0.2,0,0,0.5,0.3,0.6c0,0,0,0,0.1,0l0-0.1c0,0.1,0,0.1,0.1,0.2c-0.1,0-0.1,0-0.2,0c0,0.1,0,0.1,0,0.2
			c0,0,0,0.1,0,0.1c0.1,0.1,0,0.2,0.1,0.3c0,0.1,0,0.2,0.1,0.3c0.1,0.3,0.1,0.3-0.1,0.3c-0.1,0.1-0.1,0.3-0.2,0.5
			c0-0.1,0-0.2-0.1-0.3l0,0c0,0.2,0,0.2,0,0.2c-0.1,0-0.2,0-0.2,0c0,0.1,0,0.2,0.1,0.3c-0.1,0-0.2,0-0.2-0.3c0,0,0,0-0.1,0
			c0,0.1,0,0.1,0,0.1l0,0c0,0.2,0,0.2-0.2,0.2c0,0.2,0.1,0.3,0.1,0.5l-0.1,0c0,0-0.1,0-0.1,0c-0.1-0.2-0.2-0.1-0.2-0.1
			c-0.1,0.3-0.4,0.1-0.6,0.2c-0.3,0.1-0.3,0.1-0.3,0.5c-0.1,0-0.2,0-0.3,0c0,0.1,0,0.1,0,0.2c-0.1,0-0.2,0-0.2,0.1
			C158.5,89.5,158.9,89.5,159.1,89.4z M159.9,88.6c0.2-0.1,0.3,0,0.5-0.1l0,0c0,0,0,0,0,0.1c-0.1,0-0.1,0-0.2,0
			c-0.1,0-0.1,0.1-0.2,0.2l0,0c-0.1,0-0.2,0-0.3,0C159.7,88.7,159.8,88.6,159.9,88.6z"/>
		<path d="M159,103.8c0,0,0,0,0.1,0c0.1,0,0.1,0.1,0.1,0.1c0,0.2,0,0.2,0.1,0.2l0,0c0,0,0,0,0.1,0c0,0,0.1,0,0.1-0.1
			c0.1,0,0.1,0,0.2,0c0.1,0,0.1,0,0.2,0c0,0,0,0,0.1-0.1l0,0c0,0,0-0.1,0-0.1c0,0-0.1,0-0.1,0c0-0.1,0-0.1,0-0.1
			c0.1-0.2,0-0.2,0-0.2c0-0.1-0.3-0.1-0.3-0.1c-0.1,0-0.2,0.1-0.3,0.1c-0.1,0-0.1,0-0.2,0c0,0-0.1,0.1-0.1,0.1l0,0c0,0-0.1,0-0.1,0
			c0,0,0,0-0.2,0.1c0,0,0,0.1,0,0.1C158.9,103.7,159,103.7,159,103.8z M159.1,103.7L159.1,103.7L159.1,103.7L159.1,103.7z"/>
		<path d="M161.6,110.7C161.6,110.7,161.6,110.7,161.6,110.7c0.1-0.1,0.1-0.1,0.1-0.3l-0.1,0c0-0.1,0-0.1,0-0.2
			c-0.1-0.1-0.1-0.1-0.1-0.3c-0.3-0.2-0.3-0.2-0.1-0.5c0,0,0,0,0-0.1c0-0.1,0-0.1,0.1-0.2c0,0,0,0,0-0.1c0,0,0.2-0.6,0.1-0.8
			c-0.1,0-0.2,0-0.3-0.1c0-0.1,0.1-0.1,0.1-0.2c0,0,0,0,0-0.1c0.1-0.4,0.1-0.8,0.1-0.8l-0.1,0c0,0.1-0.1,0.1-0.1,0.2c0,0,0,0,0,0.1
			c-0.2,0.2-0.2,0.2-0.5,0.8c0,0,0,0.1-0.1,0.2c-0.1,0.1-0.1,0.1-0.2,0.2c-0.1,0.2-0.2,0.4-0.2,0.6c-0.1,0.3-0.3,0.2-0.5,0.2
			c-0.1-0.1-0.1-0.1,0-0.2c-0.1-0.2-0.3-0.3-0.4-0.5c-0.2,0-0.2,0-0.2-0.1c0.1-0.1,0.1-0.2,0.1-0.3c0,0,0,0,0,0
			c0-0.4,0.4-0.4,0.5-0.7l-0.1,0c-0.2,0-0.2,0-0.2-0.1c0,0,0,0-0.1,0c-0.1,0-0.3-0.1-0.4-0.1c0,0-0.3-0.2-0.4-0.2l0,0c0,0,0,0-0.1,0
			c0,0-0.1,0-0.1,0c0,0,0,0.1,0,0.1l0,0.1c0.1,0,0.1,0,0.2,0.1c-0.1,0.2-0.3,0-0.4,0.1c-0.1,0.1-0.3,0.2-0.4,0.3
			c-0.1,0.1-0.1,0.1-0.2,0.1c0,0,0,0,0,0.1c0,0.2-0.1,0.3-0.1,0.3c-0.1,0.1-0.4,0.1-0.4-0.1c-0.1,0-0.1,0-0.2,0l0,0c0,0,0-0.1,0-0.1
			c0,0-0.1,0-0.2,0c-0.2,0.1-0.4,0.2-0.6,0.3c-0.2,0.1-0.3,0.4-0.6,0.4c0,0,0,0.1,0,0.2c0.1,0.1,0.1,0.1,0.1,0.2c0,0,0,0.1,0,0.1
			c-0.1,0-0.2,0-0.3,0c0-0.1,0-0.2,0.1-0.2c-0.1,0-0.1,0-0.2,0c-0.1,0-0.9,1-0.9,1c0,0-0.1,0.1-0.3,0.2c-0.4,0.1-0.8,0-1.1,0.2
			c-0.2,0.1-0.4,0.1-0.5,0.2c-0.1,0.1,0,0.2-0.2,0.3c-0.1,0-0.1,0-0.3-0.1c0,0,0-0.1,0-0.1c-0.1,0.1-0.1,0.1-0.2,0.2l0,0.1
			c0,0,0,0,0,0.1c0,0.1,0,0.1,0,0.2c0,0,0,0,0,0.1c-0.1,0.1-0.2,0.2,0,0.7c-0.1,0-0.2-0.1-0.3,0c0,0,0,0.1,0,0.1
			c0.2,0.5,0.4,0.9,0.2,1.9c0,0.1-0.1,0.2-0.1,0.2c-0.2,0-0.3,0.1-0.4,0.2l0,0.1c0,0,0.1,0,0.1,0c0,0,0,0.1,0,0.1
			c0.1,0.1,0.4,0.3,0.9,0c0.3-0.3,0.4-0.3,1-0.1c0.1,0,0.1,0,0.4-0.2c0.3-0.2,0.5-0.3,0.7-0.4c0.1,0,0.1,0,0.2,0.1
			c0.4,0,0.7-0.6,1.2-0.3c0.1,0.1,0.1,0.1,0.2,0.1c0,0,0.1,0,0.1,0c0.1,0,0.1,0,0.2,0c0,0.1-0.1,0.2-0.1,0.3c0,0,0.1,0,0.1,0
			c0,0,0,0-0.2,0.4l0,0c0.2,0,0.8-0.5,0.8-0.5l0.1,0l0,0.1c-0.1,0.1-0.3,0.2-0.4,0.4l0.1,0c0.1-0.1,0.1-0.1,0.2-0.1
			c0,0.1-0.1,0.1-0.1,0.2l0,0l0,0.1c-0.1,0.1-0.1,0.1-0.1,0.1c2-1.1,3.9-2.6,5.5-4.2C161.5,110.9,161.5,110.8,161.6,110.7z"/>
		<path d="M161.4,78C161.4,78,161.4,78.1,161.4,78c0.1,0.1,0.1,0.1,0.2,0.3c0.1,0.1,0,0.2,0.1,0.3c0,0,0,0,0.1,0.2l0.8,1.3
			c0,0,0,0,0,0.1c0.1,0.1,0.2,0.2,0.3,0.3c0.1,0.2,0.2,0.4,0.3,0.5l0.1,0l0,0v0c0,0,0.1-0.1,0.1-0.1c0-0.1-0.1-0.2-0.2-0.3
			c0-0.1,0-0.2,0-0.3c0-0.1,0-0.1,0-0.1C162.6,79.3,162,78.6,161.4,78z"/>
		<path d="M157.9,107.6c0,0,0,0,0.2,0c0,0,0,0,0.1,0c0,0,0.1,0,0.1,0c0,0,0-0.1,0-0.1l-0.1,0c-0.1,0-0.2,0-0.3,0c0,0-0.1,0-0.1,0.1
			C157.8,107.5,157.8,107.6,157.9,107.6C157.9,107.6,157.9,107.6,157.9,107.6z"/>
		<path d="M163.4,81.4C163.4,81.3,163.4,81.3,163.4,81.4c0-0.1,0-0.1,0-0.1l0,0c0,0,0,0,0-0.1l-0.1,0c0,0,0,0,0,0.1c0,0,0,0,0,0.1
			C163.3,81.3,163.3,81.3,163.4,81.4c0,0.1-0.1,0.1-0.1,0.1c0,0,0,0,0,0.1l0,0l0,0c0,0,0,0,0,0C163.4,81.5,163.4,81.5,163.4,81.4
			C163.4,81.4,163.4,81.4,163.4,81.4L163.4,81.4z"/>
		<path d="M163.2,83.4C163.2,83.4,163.1,83.3,163.2,83.4c0-0.1,0-0.2,0-0.2l0,0l0,0c0,0,0,0,0,0c0,0,0,0,0,0.1c0,0,0,0,0,0.1
			c0,0,0,0,0,0.1C163,83.4,163.1,83.4,163.2,83.4C163.2,83.4,163.2,83.4,163.2,83.4z"/>
		<path d="M156.8,106.2C156.8,106.2,156.8,106.2,156.8,106.2L156.8,106.2L156.8,106.2c0.1,0.1,0.1,0.1,0.1,0c0,0,0.1,0,0.1,0l0,0
			c0,0,0,0,0.1-0.1l0,0l0-0.1C157,106.1,156.9,106.1,156.8,106.2C156.8,106.1,156.8,106.2,156.8,106.2z"/>
		<path d="M157.2,103.8c-0.1,0-0.1,0-0.2,0l0,0c0,0,0,0,0,0l-0.1,0l0,0c0,0,0,0.1,0,0.1c0,0,0,0,0.1,0.1c0,0,0,0,0.1,0
			c0,0,0,0,0.1,0c0,0,0.1,0,0.1,0c0,0,0.1,0,0.1,0l0,0l0,0c0,0,0,0,0-0.2C157.2,103.9,157.2,103.8,157.2,103.8z"/>
		<path d="M156.2,92.8c-0.1,0-0.1,0.1-0.1,0.1c0,0-0.1,0.1-0.1,0.1l0,0c0,0.1-0.1,0.1-0.1,0.2c0,0-0.1,0-0.1,0c0,0,0,0.2,0,0.3
			c0,0.2,0,0.5,0,0.7c0.1,0,0.2,0,0.2,0c0-0.2,0-0.2,0-0.4c0,0,0.1-0.1,0.1-0.1c0-0.1,0-0.1,0-0.1c0,0,0,0,0,0c0,0,0.1-0.1,0.1-0.1
			c0-0.1,0-0.1,0.1-0.2c0,0,0.1-0.1,0.1-0.2c0,0,0-0.1,0-0.1c0,0,0-0.1,0-0.1c0,0,0,0,0-0.1c0,0,0-0.1,0-0.1
			C156.3,92.8,156.3,92.8,156.2,92.8z"/>
		<path d="M156.5,99.5c0,0,0,0.1,0,0.1c0.1,0.1,0.3,0.1,0.3,0.1c0,0,0-0.1,0-0.1c0,0,0,0,0.2,0c0-0.1,0-0.2,0-0.3
			c0-0.1,0-0.1-0.1-0.2c-0.1,0-0.1,0-0.1-0.1c-0.1-0.1,0-0.2,0-0.2c0,0-0.1-0.1-0.2-0.1c0,0,0,0,0,0c0,0,0-0.1,0-0.1
			c0,0,0-0.1,0-0.1c0-0.1,0-0.1-0.1-0.3c-0.1-0.1-0.2-0.1-0.2-0.2c0,0-0.1-0.1-0.1-0.1l0,0c0,0,0,0-0.1,0c0,0.4,0.1,0.4,0.3,0.3
			c0,0.3,0,0.3,0,0.3c0,0,0.1,0.2,0,0.3c0,0.1,0,0.1,0,0.2c0.1,0.3,0.3,0.2,0.4,0.2c0,0,0,0-0.1,0.1L156.5,99.5z"/>
		<path d="M157,102.8c-0.4,0-0.8,0-1.2,0c-0.1,0-0.1,0.1-0.2,0.2c-0.3,0-0.3,0-0.3,0c0,0-0.1,0-0.1,0c-0.1,0.1-0.1,0.2-0.1,0.3
			c0.1-0.1,0.2-0.1,0.3-0.1c0,0,0-0.1,0.1-0.1c0.1-0.1,0.1-0.1,0.2-0.1c0,0,0,0,0,0c0,0,0-0.1,0.1-0.1l0.1,0c0.2,0,0.3,0,0.5,0
			c0,0,0.1,0.1,0.2,0.1c0,0,0,0,0.1,0c0.1,0,0.1,0,0.2-0.1c0,0,0-0.1,0.1-0.1l0,0c0.1,0,0.2-0.1,0.2-0.3l0,0c0,0,0,0-0.1,0
			C157.1,102.7,157.1,102.7,157,102.8z"/>
		<path d="M155.6,96.8L155.6,96.8l0,0.1c0,0,0,0.1,0.2,0.2c0.1,0.1,0.1,0.1,0.1,0.1l0,0l0,0c-0.1,0.2,0,0.3,0,0.3c0,0,0.1,0,0.1,0
			c0.1,0,0.1,0,0.2,0c0,0,0-0.1,0-0.1c0,0,0-0.1,0-0.1c0-0.1,0-0.1,0-0.2c0-0.1,0.1-0.2,0.1-0.2l0,0l0,0l0-0.1
			c0.1-0.1,0.1-0.3,0.1-0.3v-0.1l0-0.1v0c0-0.1,0-0.1,0-0.1l0,0l0,0l0,0l0-0.1l0-0.1l0,0l0,0l0,0l0,0l0,0l0,0h0h0h0h0h0h0l0,0h0
			c0,0,0,0,0,0l0,0l0-0.1c-0.1-0.1-0.1-0.1-0.1-0.1c-0.1,0-0.1,0-0.2,0l0,0l0,0l0,0l0,0l0,0.1v0c0,0.1,0,0.1,0,0.1v0l0,0.1
			c0,0,0,0.1,0,0.2c0,0.1,0,0.1,0,0.1C155.8,96.6,155.7,96.6,155.6,96.8L155.6,96.8z"/>
		<path d="M157.3,97.6C157.3,97.6,157.2,97.6,157.3,97.6c-0.1,0-0.1,0-0.2,0c0,0,0,0-0.1,0c0,0,0,0-0.1,0c-0.1,0-0.1,0.1-0.1,0.1
			c0,0,0,0.1-0.1,0.1c0,0-0.2,0-0.3,0c0.1,0,0.2,0.2,0.2,0.2c0.1,0,0.1,0,0.1,0l0,0c0,0,0,0.1,0,0.1c0,0,0.1,0.1,0.1,0.1
			c0.1,0.1,0,0.2,0.1,0.3c0,0,0.1,0,0.1,0c0.1,0,0.1,0.1,0.1,0.1c0,0,0,0,0,0c0,0,0,0,0.1,0.1c0,0,0,0,0,0.2c0.1,0,0.2,0,0.3,0
			c0-0.1,0-0.1,0-0.2l0,0c0-0.2,0-0.3-0.1-0.3c-0.1,0-0.1,0-0.1-0.1c0,0,0,0,0-0.1c-0.1-0.2-0.2-0.2-0.2-0.2c0,0,0,0,0,0
			c0,0,0-0.1,0-0.1c0,0,0-0.1,0-0.1C157.3,97.8,157.3,97.7,157.3,97.6z"/>
		<path d="M157.5,104.7c0,0,0.1,0,0.1,0c0,0,0-0.1,0-0.1l0,0c0,0,0,0,0,0c0,0,0,0,0,0c0,0-0.1,0-0.1,0c0,0-0.1,0-0.1,0l0,0
			c0,0,0,0.1,0,0.2c0,0,0,0.1,0,0.1C157.4,104.7,157.4,104.7,157.5,104.7z"/>
		<path d="M157.9,103.7c0,0,0,0,0.1,0c0-0.2,0-0.2,0.1-0.4c0.1-0.1,0.3,0,0.4,0c0,0,0-0.1,0-0.1c0-0.1,0-0.1,0-0.1c0,0,0,0-0.1,0
			l0,0l0-0.1c0,0,0,0,0-0.1c-0.1,0-0.1,0-0.2,0c0,0,0-0.1,0-0.1c0-0.1,0-0.1,0.1-0.1l0,0c0,0,0,0,0-0.2c-0.1,0.1-0.1,0.1-0.3,0.3
			c0,0,0,0-0.1,0c0,0,0,0,0,0.1l0,0c0,0.1,0,0.1,0,0.2l0,0.2c0,0,0,0,0,0.1c0,0-0.1,0.2-0.1,0.2l0,0.3
			C157.8,103.6,157.8,103.6,157.9,103.7C157.9,103.6,157.9,103.7,157.9,103.7z"/>
		<path d="M157.9,107.4C157.9,107.4,157.9,107.4,157.9,107.4C158,107.4,158,107.4,157.9,107.4C158,107.4,157.9,107.4,157.9,107.4z"
			/>
		<path d="M154.5,106.9C154.6,107,154.6,107,154.5,106.9c0.1,0.1,0.1,0.2,0.1,0.2c0.1,0,0.1,0,0.4,0l0,0c0,0,0-0.1,0-0.1
			c-0.1,0-0.1,0-0.1-0.1c0,0,0-0.1,0-0.1l0,0l-0.1,0c0,0,0,0,0-0.1c0,0-0.1,0-0.1,0C154.6,106.8,154.6,106.8,154.5,106.9
			C154.5,106.9,154.5,106.9,154.5,106.9z"/>
		<path d="M153.8,106.7c0,0,0.3,0,0.3,0c0,0,0.1,0,0.1-0.1c0,0,0,0,0.1,0c0,0,0.1,0,0.1,0c0.1,0,0.1,0,0.2,0h0c0,0,0-0.1,0-0.1
			c-0.1,0-0.1,0-0.2,0l0,0l0,0c0,0,0,0-0.1,0c0,0-0.1,0-0.1,0c0,0-0.1,0-0.1,0c0,0,0,0-0.1,0c0,0-0.1,0-0.1,0.1l0,0
			c-0.1,0-0.1,0-0.2,0c0,0-0.1,0-0.1,0C153.6,106.6,153.7,106.7,153.8,106.7z"/>
		<path d="M156.2,107.1C156.2,107.1,156.2,107.1,156.2,107.1c0.1-0.1,0.3-0.3,0.3-0.3c0.1-0.1,0.2,0,0.3-0.1c0,0,0.1-0.1,0.1-0.1
			c0,0,0.1,0,0.2,0c0.2,0,0.2,0,0.2-0.1l0,0l0,0l-0.1,0c0,0,0-0.1-0.1-0.1c0,0-0.1,0-0.2,0c-0.1,0-0.1,0-0.1,0.1c0,0,0,0-0.1,0.1
			c0,0-0.1,0.1-0.1,0.1c0,0-0.1,0-0.1,0c0,0,0,0,0,0c0,0,0,0.1-0.1,0.1c-0.2,0-0.2,0-0.2,0c0,0-0.1,0.1-0.1,0.1c0,0-0.1,0.1-0.1,0.1
			l0,0l0,0l0,0l0,0c0,0.1,0,0.1,0,0.1C156,107.1,156.1,107.2,156.2,107.1z"/>
	</g>
</g>
</svg>
